<svg width="192" height="96" viewBox="0 0 192 96" fill="none" xmlns="http://www.w3.org/2000/svg">
<path fill-rule="evenodd" clip-rule="evenodd" d="M76.156 68C69.786 64.052 61.156 63.356 47.208 67.072C32.288 70.4 27.372 72.568 20.84 68.232C18.34 66.142 17.454 62.736 18.1 57.784C19.712 49.812 23.906 42.072 31.324 33.558C35.518 29.068 39.388 25.278 44.468 23.728C48.338 22.8 48.016 25.74 47.532 26.128C47.048 26.128 46.162 26.208 45.516 26.592C45.032 26.978 43.58 28.292 43.5 29.998C43.34 32.552 46.16 32.01 47.37 30.598C48.66 28.972 50.596 25.878 49.064 23.012C48.5 22.006 47.37 21.312 46 21.078C41.324 20.768 36.968 22.938 33 25.278C24.21 31.158 17.196 39.288 13.164 48.11C10.904 53.45 8.81001 61.114 11.954 67.382C14.354 71.716 19.294 74.038 25.258 73.574C29.452 73.11 34.45 71.774 37.918 71.02C41.304 70.246 58.642 64.52 64.366 74.5C64.366 74.5 66.22 70.94 70.978 70.86C74.848 70.55 80.492 71.944 84.606 74.884C83.236 72.872 79.366 70.008 76.14 67.996L76.156 68ZM49 34.586C45.694 32.496 39.16 36.446 34 43.1C29.16 49.14 27.146 56.104 29.404 59.354C32.71 63.146 38.918 57.65 41.58 54.71L41.9 54.322C43.674 52.462 45.044 50.222 46.416 48.13L47.706 46.04C48.432 45.96 49.4 45.73 50.446 45.44C50.366 45.52 46.494 51.864 46.898 55.04C46.978 55.968 46.898 59.53 50.446 60.612C55.206 61.308 59.074 57.826 62.38 54.652L63.266 53.8L63.106 54.574C61.736 59.218 63.59 60.146 64.8 60.534C68.348 61.54 72.6 56.586 72.6 56.586C72.44 58.134 72.116 59.45 73.89 60.456C75.502 60.996 77.116 60.224 78.406 59.372C82.842 56.372 86.47 51.572 89.372 47.532H87.518C87.518 47.532 82.922 53.878 79.918 55.272C79.918 55.272 79.434 55.504 79.112 55.272C78.708 54.962 78.872 54.266 79.112 53.802L90.562 34.682H85.162C85.162 34.682 84.598 35.61 84.516 35.688C84.516 35.608 84.436 35.534 84.356 35.456C80.97 30.966 73.39 37.856 67.664 45.75C65.464 48.846 62.664 52.25 59.764 54.75C59.764 54.75 55.49 58.542 53.636 55.834C52.99 54.674 53.152 53.048 53.556 51.964C55.652 46.084 59.362 40.74 63.556 37.568C64.766 36.716 66.056 36.408 66.7 36.794C66.9743 36.9908 67.1613 37.2866 67.2214 37.6188C67.2815 37.951 67.21 38.2936 67.022 38.574C66.054 38.574 65.248 38.884 64.622 39.502C63.412 40.742 62.928 41.978 63.332 43.142C65.268 45.774 69.138 40.51 68.976 37.336C68.896 36.176 68.25 35.092 67.282 34.55C65.912 33.776 63.734 34.01 62.362 34.63C60.508 35.326 57.522 37.63 55.83 39.506C53.63 41.826 49.862 44.382 48.734 44.072C49.138 43.066 52.282 36.952 48.974 34.632L49 34.586ZM75.046 43.72C76.094 42.326 79.158 38.534 79.886 37.914C82.486 35.824 83.434 36.754 83.514 37.374L75.774 50.222C75.854 50.142 74.968 51.382 74.968 51.382C73.84 53.082 72.708 54.478 70.776 55.482C70.536 55.562 70.13 55.636 69.808 55.402C69.404 55.17 69.324 54.802 69.324 54.396C69.484 53.156 70.856 49.132 75.05 43.716L75.046 43.72ZM45.614 46.12C45.614 46.12 45.614 46.276 45.534 46.276L43.194 49.99C41.742 51.79 39.968 54.09 37.794 55.176C37.148 55.408 36.262 55.564 35.778 54.944C34.81 53.86 35.294 52.312 35.698 50.996L35.858 50.61C36.986 47.514 38.922 44.804 40.698 42.25H40.778V42.33C41.988 44.42 44.084 45.33 45.698 45.814V45.894C45.698 45.894 45.698 45.974 45.618 46.126L45.614 46.12ZM47.874 41.786L46.826 44.106C46.666 44.186 46.422 44.186 46.18 44.106L45.696 44.026C44.244 43.562 43.096 42.632 42.792 41.55C42.308 39.382 44.244 37.68 45.052 37.06C45.938 36.52 47.148 36.208 47.852 36.75C48.336 37.29 48.498 37.99 48.498 38.686C48.498 39.614 48.178 40.776 47.852 41.782L47.874 41.786ZM116.23 48.75C115.746 47.666 114.456 46.95 113.166 47.05C108.892 47.438 104.7 50.842 102.442 55.642C101.283 58.1343 100.547 60.8021 100.264 63.536C101.634 62.066 104.296 59.588 107.44 58.276C107.44 58.276 107.844 55.18 109.94 52.316C110.746 51.156 112.44 49.316 114.214 49.84C115.826 50.304 115.262 54.56 113.166 58.664C111.554 61.664 109.214 64.704 106.796 66.714C104.596 68.514 101.476 70.584 98.652 68.958C96.958 67.952 96.052 65.862 96.252 63.23C97.058 55.644 100.688 49.144 105.848 41.79C111.168 34.978 116.976 27.936 124.878 24.22C126.49 23.368 128.022 23.214 129.314 23.68C129.314 23.68 121.914 27.628 118.348 34.826C117.46 36.686 116.148 39.16 117.46 41.326C118.106 42.486 119.314 42.566 120.2 42.566C124.554 41.56 127.376 37.69 129.634 34.13C130.924 31.42 132.134 28.79 132.134 25.77C132.134 25.46 132.134 24.918 132.054 24.61C134.15 23.526 138.424 25.384 138.424 25.384C141.73 26.468 148.744 31.654 151.164 32.66C152.292 31.344 154.228 29.41 155.276 28.4L153.744 27.472C151.244 26.002 148.584 24.686 146.004 23.272C140.118 20.176 135.36 21.26 132.94 22.112L131.086 22.712C129.232 20.776 126.326 21.012 124.152 21.472C116.252 23.64 108.992 28.98 101.152 38.112C95.346 45.312 91.798 51.502 89.944 57.616C88.412 61.716 88.008 67.756 91.556 71.416C94.62 74.416 98.652 73.736 101.476 72.656C107.686 69.792 113.25 63.446 115.99 56.248C116.636 54.08 117.36 51.062 116.23 48.74V48.75ZM130.422 26.07C129.616 35.07 122.358 40.39 120.502 40.776C119.454 41.008 117.598 40.544 119.212 36.752C121.712 31.644 125.824 27.386 130.34 25.142C130.404 25.447 130.433 25.7586 130.422 26.07ZM173.622 27.23C169.67 29.398 165.622 30.71 160.722 30.23L156.77 34.796C163.704 36.496 171.042 32.784 175.074 29.146C179.428 25.586 181.606 21.096 181.606 21.096C181.606 21.096 178.38 24.576 173.622 27.21V27.23Z" fill="#E31E2A"/>
<path fill-rule="evenodd" clip-rule="evenodd" d="M99.6 34.66H94.44L91.536 39.304H96.696L99.6 34.66ZM160.74 68.486C160.176 68.874 159.368 68.566 159.692 67.712C160.418 65.622 163.24 61.288 163.24 61.288L171.304 47.588H165.8L164.912 48.982C164.672 48.594 163.944 47.666 163.622 47.512C162.252 46.66 160.316 47.048 158.946 47.822C153.06 51.15 148.786 57.652 145.4 62.762C145.4 62.762 141.772 68.412 139.836 68.876C138.304 68.956 138.464 66.94 138.464 66.476C139.11 63.148 140.48 59.976 141.85 57.036C144.754 55.176 147.978 52.702 150.962 49.916C157.332 44.036 162.734 37.376 163.562 35.906C163.562 35.906 162.676 36.06 161.708 36.138C156.788 42.738 146.708 52.314 143.648 53.708C144.938 50.612 153.728 35.674 161.148 28.554L162.358 27.47C164.132 25.77 166.068 23.99 167.518 23.754C167.678 23.674 167.838 23.754 168.002 24.064C168.082 25.38 167.598 26.384 166.954 27.47L166.148 29.096C166.148 29.096 167.358 28.864 168.084 28.632C168.97 27.006 170.02 25.226 169.616 23.06C169.536 22.364 168.97 21.9 168.326 21.744C166.066 21.356 163.65 22.904 161.714 24.22H161.634C151.634 31.806 143.168 42.62 135.75 57.5C135.186 57.888 133.15 58.352 132.766 58.1C133.492 56.63 134.46 54.694 134.862 52.604C134.956 51.9888 135.01 51.3682 135.024 50.746C135.024 49.506 134.704 48.27 133.492 47.418C132.122 46.722 130.348 47.03 129.138 47.572C123.898 49.662 119.946 54.848 117.124 59.182C115.592 61.892 114.06 64.754 113.576 68.182C113.336 70.736 113.896 72.438 115.43 73.29C117.042 74.064 119.058 73.29 119.866 72.902C125.186 70.192 128.978 64.774 131.88 59.742C132.04 59.742 133.654 59.742 134.864 59.432C134.784 59.664 134.218 61.444 134.218 61.444C132.282 66.708 131.478 70.268 133.25 72.434C135.75 75.374 139.944 72.28 143.33 68.234C142.604 73.11 145.266 73.884 147.282 73.494C149.542 72.894 152.122 70.554 153.33 69.294C153.01 70.688 153.09 73.242 155.184 73.554C156.636 73.786 157.684 73.09 158.974 72.394C163.49 70.074 168.814 62.178 170.182 60.01H168.382C166.366 62.874 163.866 66.666 160.722 68.446L160.74 68.486ZM120.42 67.946C120.1 67.482 120.016 67.018 120.016 66.552C119.936 63.612 123.242 58.348 125.58 55.406C126.548 57.574 128.806 58.812 130.176 59.354C128.482 62.914 122.776 70.554 120.42 67.946ZM131.064 57.806C130.904 57.96 128.16 57.032 127.596 54.556C127.112 52.388 128.644 50.764 130.196 49.912C130.76 49.448 131.728 49.216 132.456 49.526C133.102 49.912 133.262 50.686 133.262 51.46C133.262 52 133.262 52.466 133.182 52.93V53.084C132.683 54.7386 131.979 56.3242 131.086 57.804L131.064 57.806ZM153.48 66.94L152.916 67.404C152.19 68.004 151.384 68.72 150.516 68.41C150.196 68.33 150.032 67.946 150.032 67.714C149.952 65.854 150.838 64.154 151.644 62.528L151.884 62.064C154.284 58.194 157.124 53.628 161.238 50.454C161.964 49.99 162.69 49.526 163.498 49.854C163.658 50.086 163.902 50.318 163.902 50.628C163.883 50.7688 163.827 50.902 163.74 51.014C162.612 52.814 161.48 54.73 160.434 56.51C158.338 60.07 156.16 63.786 153.5 66.958L153.48 66.94Z" fill="#E31E2A"/>
</svg>
