<svg width="486" height="486" viewBox="0 0 486 486" fill="none" xmlns="http://www.w3.org/2000/svg">
<rect width="486" height="486" rx="243" fill="white"/>
<g clip-path="url(#clip0_64_3)">
<path d="M243.004 70.5H243C208.688 70.5 175.146 80.6303 146.614 99.6115C118.083 118.593 95.8427 145.573 82.709 177.143C69.5753 208.713 66.1387 243.452 72.8344 276.967C79.5301 310.482 96.0569 341.266 120.322 365.426C144.588 389.586 175.502 406.037 209.155 412.702C242.807 419.367 277.69 415.946 309.391 402.872C341.092 389.799 368.19 367.658 387.256 339.247C406.322 310.836 416.5 277.433 416.5 243.261L416.5 243.257C416.453 197.448 398.155 153.532 365.627 121.145C333.099 88.7591 288.998 70.5466 243.004 70.5ZM169.313 231.992H91.6373C93.7554 203.795 103.783 176.726 120.615 153.886C138.177 130.055 162.377 111.874 190.217 101.597C218.057 91.3207 248.315 89.4003 277.241 96.0744C306.168 102.748 332.49 117.723 352.951 139.142C373.411 160.561 387.11 187.482 392.354 216.573C397.597 245.663 394.156 275.645 382.455 302.808C370.755 329.972 351.307 353.124 326.52 369.395C302.707 385.027 274.971 393.649 246.5 394.307V394.179L243.004 394.175C203.965 394.131 166.444 379.129 138.22 352.284C110.887 326.287 94.3036 291.114 91.6243 253.666H169.313C174.264 253.666 179.009 255.624 182.506 259.105C186.001 262.586 187.963 267.303 187.963 272.219V272.223C187.975 282.903 192.242 293.139 199.822 300.686C207.402 308.233 217.676 312.476 228.389 312.488H228.393H267.565L257.182 322.771L257.175 322.778C255.132 324.812 253.981 327.575 253.981 330.459C253.981 333.342 255.132 336.105 257.175 338.139C259.218 340.173 261.985 341.313 264.868 341.313C267.75 341.313 270.518 340.173 272.56 338.139L272.562 338.137L302.183 308.602C302.188 308.597 302.193 308.592 302.198 308.587C303.216 307.59 304.026 306.4 304.581 305.087C305.138 303.768 305.425 302.35 305.425 300.918C305.425 299.485 305.138 298.068 304.581 296.748C304.026 295.435 303.216 294.246 302.198 293.249C302.193 293.244 302.188 293.239 302.183 293.234L272.562 263.698L272.56 263.696C270.518 261.663 267.75 260.523 264.868 260.523C261.985 260.523 259.218 261.663 257.175 263.696C255.132 265.731 253.981 268.493 253.981 271.377C253.981 274.261 255.132 277.023 257.175 279.058L257.181 279.064L269.171 290.944H228.183C223.221 290.935 218.469 288.968 214.965 285.48C211.464 281.994 209.495 277.272 209.483 272.349C209.507 261.699 205.294 251.476 197.77 243.915C190.246 236.352 180.023 232.067 169.338 231.992L169.325 231.992H169.313Z" fill="#5F00D9" stroke="#5F00D9" stroke-width="7"/>
<path d="M272.565 144.33L272.569 144.334L302.159 174.011C302.162 174.013 302.164 174.016 302.167 174.019C303.179 175.023 303.983 176.217 304.532 177.533C305.083 178.853 305.366 180.268 305.366 181.697C305.366 183.127 305.083 184.542 304.532 185.862C303.982 187.18 303.176 188.376 302.162 189.381C302.161 189.382 302.16 189.383 302.159 189.384L272.522 218.892C272.521 218.894 272.519 218.895 272.518 218.896L272.517 218.897L270.047 216.417C268.668 217.796 266.795 218.573 264.84 218.577C262.885 218.581 261.008 217.812 259.623 216.439C258.238 215.065 257.457 213.2 257.453 211.253C257.449 209.307 258.222 207.439 259.601 206.059L272.565 144.33ZM272.565 144.33C270.53 142.295 267.769 141.151 264.89 141.145C262.012 141.139 259.246 142.272 257.202 144.298C255.157 146.326 254.002 149.082 253.996 151.962C253.99 154.841 255.134 157.602 257.17 159.638L257.178 159.646L267.407 169.804L228.219 169.804L228.215 169.804C217.502 169.816 207.229 174.059 199.649 181.605C192.069 189.153 187.802 199.389 187.789 210.069L187.789 210.078L187.789 210.087C187.804 213.778 186.701 217.389 184.623 220.449L184.62 220.454C183.821 221.634 183.263 222.961 182.978 224.357C182.693 225.754 182.687 227.193 182.961 228.592C183.235 229.991 183.783 231.321 184.573 232.508C185.36 233.69 186.371 234.706 187.55 235.499C189.439 236.785 191.691 237.434 193.974 237.35L193.983 237.35L193.992 237.349C195.693 237.279 197.355 236.81 198.842 235.981C200.329 235.153 201.6 233.988 202.553 232.578C207.058 225.933 209.458 218.093 209.44 210.073C209.451 205.155 211.421 200.438 214.922 196.959C218.426 193.478 223.176 191.52 228.133 191.52H269.244L272.565 144.33Z" fill="#5F00D9" stroke="#5F00D9" stroke-width="7"/>
</g>
<defs>
<clipPath id="clip0_64_3">
<rect width="390" height="391" fill="white" transform="translate(48 48)"/>
</clipPath>
</defs>
</svg>
