<svg width="486" height="486" viewBox="0 0 486 486" fill="none" xmlns="http://www.w3.org/2000/svg">
<rect width="486" height="486" rx="243" fill="white"/>
<g clip-path="url(#clip0_64_3)">
<path d="M243.001 73.5H243C209.279 73.5 176.315 83.456 148.276 102.109C120.238 120.763 98.3839 147.275 85.4789 178.295C72.5739 209.315 69.1973 243.449 75.7763 276.38C82.3552 309.31 98.5941 339.559 122.439 363.3C146.284 387.041 176.664 403.209 209.738 409.759C242.811 416.309 277.092 412.948 308.247 400.099C339.401 387.251 366.03 365.492 384.765 337.575C403.5 309.658 413.5 276.836 413.5 243.261V243.26C413.454 198.25 395.475 155.097 363.51 123.271C331.545 91.4454 288.205 73.5458 243.001 73.5ZM169.313 234.992H88.4376C90.0524 205.074 100.393 176.269 118.2 152.106C136.111 127.802 160.789 109.262 189.178 98.7831C217.567 88.3039 248.42 86.3457 277.916 93.1512C307.411 99.9566 334.254 115.227 355.12 137.07C375.985 158.913 389.957 186.37 395.306 216.04C400.654 245.711 397.145 276.291 385.211 303.995C373.277 331.699 353.443 355.31 328.166 371.903C303.028 388.405 273.603 397.246 243.5 397.347V397.176L243.001 397.175C203.195 397.13 164.935 381.834 136.153 354.458C107.497 327.204 90.426 290.058 88.4358 250.666H169.313C175.056 250.666 180.563 252.937 184.622 256.979C188.682 261.021 190.963 266.503 190.963 272.219V272.219C190.974 282.101 194.922 291.574 201.939 298.56C208.956 305.547 218.469 309.477 228.392 309.488H228.393H274.857L259.293 324.903L259.292 324.904C257.813 326.377 256.981 328.375 256.981 330.459C256.981 332.542 257.813 334.54 259.292 336.013C260.771 337.486 262.777 338.313 264.868 338.313C266.959 338.313 268.964 337.486 270.444 336.013L270.444 336.013L300.088 306.455C300.089 306.454 300.089 306.453 300.09 306.453C300.829 305.732 301.416 304.871 301.817 303.921C302.218 302.97 302.425 301.949 302.425 300.918C302.425 299.886 302.218 298.865 301.817 297.915C301.416 296.965 300.829 296.104 300.09 295.383C300.09 295.383 300.089 295.382 300.088 295.381L270.444 265.823L270.444 265.822C268.964 264.35 266.959 263.523 264.868 263.523C262.777 263.523 260.771 264.35 259.292 265.822C257.813 267.295 256.981 269.293 256.981 271.377C256.981 273.461 257.813 275.459 259.292 276.932L259.293 276.933L276.442 293.925C276.355 293.93 276.267 293.937 276.18 293.944H228.177C222.426 293.933 216.915 291.654 212.849 287.606C208.783 283.558 206.494 278.071 206.483 272.347C206.506 262.493 202.609 253.031 195.644 246.031C188.679 239.03 179.213 235.062 169.317 234.992H169.313Z" fill="#5F00D9" stroke="#5F00D9"/>
<path d="M270.444 146.452L270.445 146.452L300.047 176.142C300.048 176.142 300.048 176.143 300.048 176.143C300.783 176.871 301.366 177.736 301.764 178.689C302.162 179.642 302.366 180.665 302.366 181.697C302.366 182.73 302.162 183.753 301.764 184.706C301.366 185.659 300.782 186.525 300.047 187.253L270.401 216.771L270.4 216.771M270.444 146.452L259.601 206.059C258.222 207.439 257.449 209.307 257.453 211.253C257.457 213.2 258.238 215.065 259.623 216.439C261.008 217.812 262.885 218.581 264.84 218.577C266.795 218.573 268.668 217.796 270.047 216.417L270.4 216.771M270.444 146.452C268.971 144.979 266.971 144.149 264.884 144.145C262.797 144.141 260.794 144.962 259.314 146.429C257.835 147.896 257.001 149.888 256.996 151.968C256.992 154.048 257.818 156.043 259.291 157.516L259.292 157.518L274.686 172.804H228.219L228.219 172.804C218.296 172.815 208.783 176.745 201.766 183.731C194.748 190.718 190.801 200.191 190.789 210.072L190.789 210.075C190.806 214.372 189.522 218.575 187.104 222.135L187.104 222.136C186.526 222.989 186.123 223.948 185.917 224.957C185.712 225.966 185.708 227.005 185.905 228.016C186.103 229.026 186.499 229.988 187.07 230.846C187.641 231.703 188.375 232.44 189.231 233.015C190.592 233.944 192.216 234.412 193.865 234.352L193.867 234.352C195.101 234.301 196.305 233.961 197.382 233.361C198.459 232.76 199.38 231.916 200.069 230.895C204.238 224.746 206.458 217.492 206.44 210.073C206.451 204.354 208.741 198.872 212.808 194.831C216.874 190.79 222.386 188.52 228.133 188.52H276.223C276.312 188.528 276.4 188.534 276.489 188.539M270.444 146.452L276.489 188.539M270.4 216.771C268.927 218.244 266.927 219.073 264.841 219.077C262.754 219.082 260.75 218.26 259.271 216.794C257.791 215.327 256.957 213.334 256.953 211.255C256.949 209.175 257.774 207.179 259.248 205.706L259.248 205.705L276.489 188.539M270.4 216.771L276.489 188.539" fill="#5F00D9" stroke="#5F00D9"/>
</g>
<defs>
<clipPath id="clip0_64_3">
<rect width="390" height="391" fill="white" transform="translate(48 48)"/>
</clipPath>
</defs>
</svg>
