<svg xmlns="http://www.w3.org/2000/svg" version="1.1" xmlns:xlink="http://www.w3.org/1999/xlink" xmlns:svgjs="http://svgjs.dev/svgjs" width="1000" height="239" viewBox="0 0 1000 239"><g transform="matrix(1,0,0,1,-0.5957696350030801,-0.6291512229894494)"><svg viewBox="0 0 396 95" data-background-color="#fefee2" preserveAspectRatio="xMidYMid meet" height="239" width="1000" xmlns="http://www.w3.org/2000/svg" xmlns:xlink="http://www.w3.org/1999/xlink"><g id="tight-bounds" transform="matrix(1,0,0,1,0.23592477546122836,0.25008103005856697)"><svg viewBox="0 0 395.52 94.50798838896036" height="94.50798838896036" width="395.52"><g><svg viewBox="0 0 549.1528982284422 131.2179807077709" height="94.50798838896036" width="395.52"><g transform="matrix(1,0,0,1,0,18.135046537759948)"><svg viewBox="0 0 395.52 94.947887632251" height="94.947887632251" width="395.52"><g id="textblocktransform"><svg viewBox="0 0 395.52 94.947887632251" height="94.947887632251" width="395.52" id="textblock"><g><svg viewBox="0 0 395.52 94.947887632251" height="94.947887632251" width="395.52"><g transform="matrix(1,0,0,1,0,0)"><svg width="395.52" viewBox="1.3 -32.4 137.04 32.9" height="94.947887632251" data-palette-color="#5f00d9"><path d="M22.25-29.95L20.9-21.8Q16.1-23.25 13.88-23.25 11.65-23.25 10.83-21.3 10-19.35 10-15.13 10-10.9 10.78-8.97 11.55-7.05 13.95-7.05L13.95-7.05Q14.65-7.05 16.65-7.45L16.65-7.45 16.65-11.25 14.4-11.25 14.4-17.15 23.95-17.15 23.95 0 18.05 0 17.25-1.6 17.05-1.6Q16.2-0.9 15.7-0.55L15.7-0.55Q14.3 0.5 11.75 0.5L11.75 0.5Q1.3 0.5 1.3-15.3L1.3-15.3Q1.3-23.2 4.05-27.38 6.8-31.55 13.3-31.55L13.3-31.55Q18.5-31.55 22.25-29.95L22.25-29.95ZM27.45-5.5L27.45-5.5 27.45-32.05 35.7-32.05 35.7-8.15Q35.7-7.3 36.07-6.95 36.45-6.6 37.4-6.6L37.4-6.6 36.75 0.5 34 0.5Q30.7 0.5 29.07-0.88 27.45-2.25 27.45-5.5ZM38.7-12.08Q38.7-18.65 41.22-21.6 43.75-24.55 49.12-24.55 54.5-24.55 56.95-21.65 59.4-18.75 59.4-12.13 59.4-5.5 57-2.5 54.6 0.5 49.15 0.5 43.7 0.5 41.2-2.5 38.7-5.5 38.7-12.08ZM50.72-16.8Q50.4-17.8 49.1-17.8 47.8-17.8 47.45-16.8 47.1-15.8 47.1-12.6L47.1-12.6 47.1-11.4Q47.1-7.85 47.45-6.8 47.8-5.75 49.07-5.75 50.35-5.75 50.7-6.8 51.05-7.85 51.05-11.1L51.05-11.1 51.05-12.55Q51.05-15.8 50.72-16.8ZM69.89-32.4L69.89-32.4Q72.99-32.4 76.39-32.1L76.39-32.1 75.69-24.8Q73.44-25.05 72.42-25.05 71.39-25.05 71.39-24.15L71.39-24.15 71.39-23.25 75.49-23.25 75.09-17.05 71.49-17.05 71.49 0 63.14 0 63.14-17.05 60.94-17.05 60.94-23.25 63.14-23.25 63.14-25.75Q63.14-32.4 69.89-32.4ZM76.64-5.5L76.64-5.5 76.64-32.05 84.89-32.05 84.89-8.15Q84.89-7.3 85.27-6.95 85.64-6.6 86.59-6.6L86.59-6.6 85.94 0.5 83.19 0.5Q79.89 0.5 78.27-0.88 76.64-2.25 76.64-5.5ZM87.89-12.08Q87.89-18.65 90.41-21.6 92.94-24.55 98.31-24.55 103.69-24.55 106.14-21.65 108.59-18.75 108.59-12.13 108.59-5.5 106.19-2.5 103.79 0.5 98.34 0.5 92.89 0.5 90.39-2.5 87.89-5.5 87.89-12.08ZM99.91-16.8Q99.59-17.8 98.29-17.8 96.99-17.8 96.64-16.8 96.29-15.8 96.29-12.6L96.29-12.6 96.29-11.4Q96.29-7.85 96.64-6.8 96.99-5.75 98.26-5.75 99.54-5.75 99.89-6.8 100.24-7.85 100.24-11.1L100.24-11.1 100.24-12.55Q100.24-15.8 99.91-16.8ZM130.94-23.95L138.34-23.95 135.29 0 126.14 0 124.19-10.1 123.84-10.1 121.94 0 112.99 0 109.94-23.95 117.64-23.95 118.69-11.85 119.09-11.85 120.79-23.95 127.74-23.95 129.39-11.85 129.84-11.85 130.94-23.95Z" opacity="1" transform="matrix(1,0,0,1,0,0)" fill="#5f00d9" class="wordmark-text-0" data-fill-palette-color="primary" id="text-0"></path></svg></g></svg></g></svg></g></svg></g><g transform="matrix(1,0,0,1,417.93491752067126,0)"><svg viewBox="0 0 131.2179807077709 131.2179807077709" height="131.2179807077709" width="131.2179807077709"><g><svg xmlns="http://www.w3.org/2000/svg" viewBox="10.780000000000001 10.78 78.44 78.44" x="0" y="0" height="131.2179807077709" width="131.2179807077709" class="icon-icon-0" data-fill-palette-color="accent" id="icon-0"><path d="M50 10.78A39.22 39.22 0 1 0 89.22 50 39.26 39.26 0 0 0 50 10.78Zm0 75A35.86 35.86 0 0 1 14.22 51.6H33a5.11 5.11 0 0 1 5.11 5.11 8.53 8.53 0 0 0 8.52 8.52h11L53.84 69a1.7 1.7 0 1 0 2.41 2.41l6.84-6.85a1.68 1.68 0 0 0 0-2.4l-6.84-6.85a1.7 1.7 0 0 0-2.41 2.41L58 61.86a1.87 1.87 0 0 0-0.34 0H46.58a5.13 5.13 0 0 1-5.12-5.12A8.52 8.52 0 0 0 33 48.2H14.22A35.82 35.82 0 1 1 50 85.82Z" fill="#5f00d9" data-fill-palette-color="accent"></path><path d="M56.25 27.65a1.7 1.7 0 0 0-2.41 2.4l3.75 3.74h-11a8.53 8.53 0 0 0-8.52 8.52 5.07 5.07 0 0 1-0.87 2.86 1.7 1.7 0 0 0 0.46 2.36 1.66 1.66 0 0 0 1 0.29A1.7 1.7 0 0 0 40 47.07a8.47 8.47 0 0 0 1.45-4.76 5.12 5.12 0 0 1 5.12-5.11h11.1a1.86 1.86 0 0 0 0.34 0l-4.18 4.18a1.7 1.7 0 0 0 2.41 2.4l6.84-6.84a1.7 1.7 0 0 0 0-2.41Z" fill="#5f00d9" data-fill-palette-color="accent"></path></svg></g></svg></g></svg></g><defs></defs></svg><rect width="395.52" height="94.50798838896036" fill="none" stroke="none" visibility="hidden"></rect></g></svg></g></svg>