<svg width="390" height="391" viewBox="0 0 390 391" fill="none" xmlns="http://www.w3.org/2000/svg">
<g clip-path="url(#clip0_51_2)">
<path d="M195.002 24H195C160.984 24 127.73 34.0431 99.4453 52.8604C71.1602 71.6777 49.1133 98.4244 36.094 129.719C23.0746 161.014 19.668 195.45 26.3053 228.673C32.9427 261.896 49.3255 292.412 73.3808 316.363C97.436 340.314 128.083 356.623 161.446 363.231C194.809 369.838 229.391 366.447 260.819 353.486C292.247 340.525 319.11 318.575 338.011 290.411C356.911 262.247 367 229.135 367 195.261L367 195.258C366.954 149.849 348.815 106.315 316.569 74.2084C284.322 42.1022 240.602 24.0462 195.002 24ZM121.313 185.492H42.029C43.9012 156.434 54.0879 128.498 71.4076 104.996C89.1443 80.9285 113.583 62.5682 141.698 52.1903C169.812 41.8123 200.367 39.873 229.578 46.6128C258.79 53.3525 285.372 68.4749 306.035 90.106C326.698 111.737 340.534 138.926 345.83 168.306C351.126 197.687 347.65 227.968 335.833 255.402C324.016 282.836 304.375 306.217 279.343 322.649C254.867 338.716 226.288 347.45 197 347.834V347.677L195.002 347.675C155.58 347.631 117.69 332.481 89.1864 305.371C61.1916 278.745 44.3623 242.587 42.0217 204.166H121.313C126.66 204.166 131.786 206.28 135.564 210.042C139.342 213.803 141.463 218.903 141.463 224.219V224.221C141.475 234.502 145.582 244.356 152.881 251.623C160.179 258.89 170.073 262.976 180.39 262.988H180.393H223.211L210.237 275.837L210.234 275.841C208.472 277.595 207.481 279.975 207.481 282.459C207.481 284.942 208.472 287.323 210.234 289.076C211.995 290.83 214.381 291.813 216.868 291.813C219.354 291.813 221.741 290.83 223.502 289.076L223.503 289.075L253.136 259.528C253.138 259.526 253.141 259.523 253.144 259.52C254.022 258.661 254.721 257.636 255.199 256.504C255.678 255.369 255.925 254.15 255.925 252.918C255.925 251.686 255.678 250.467 255.199 249.331C254.721 248.2 254.022 247.175 253.144 246.316C253.141 246.313 253.138 246.31 253.136 246.307L223.503 216.76L223.502 216.759C221.741 215.006 219.354 214.023 216.868 214.023C214.381 214.023 211.994 215.006 210.234 216.759C208.472 218.513 207.481 220.893 207.481 223.377C207.481 225.861 208.472 228.241 210.234 229.995L210.237 229.998L224.816 244.444H180.18C174.824 244.434 169.692 242.311 165.907 238.543C162.124 234.776 159.995 229.672 159.983 224.348C160.007 214.096 155.951 204.254 148.707 196.973C141.462 189.691 131.618 185.564 121.327 185.492H121.313Z" fill="#5F00D9" stroke="#5F00D9" stroke-width="4"/>
<path d="M223.507 97.3932L223.505 97.3909C221.75 95.6368 219.37 94.6501 216.887 94.6449C214.405 94.6398 212.02 95.6167 210.258 97.3635C208.496 99.1106 207.502 101.485 207.496 103.965C207.491 106.444 208.476 108.823 210.23 110.577L210.235 110.582L223.046 123.304H180.219L180.217 123.304C169.899 123.316 160.006 127.402 152.707 134.668C145.409 141.935 141.301 151.79 141.289 162.071L141.289 162.081C141.305 166.075 140.112 169.982 137.864 173.292L137.862 173.295C137.173 174.312 136.693 175.454 136.448 176.657C136.202 177.86 136.198 179.099 136.433 180.304C136.669 181.508 137.141 182.655 137.821 183.677C138.5 184.697 139.373 185.573 140.391 186.257C142.015 187.365 143.954 187.923 145.92 187.851L145.929 187.851C147.397 187.79 148.83 187.386 150.112 186.671C151.394 185.957 152.489 184.953 153.31 183.738C153.311 183.737 153.312 183.736 153.312 183.735C157.649 177.338 159.958 169.792 159.94 162.073C159.951 156.754 162.081 151.655 165.865 147.895C169.65 144.134 174.781 142.02 180.133 142.02H224.876L210.19 156.642L210.187 156.645C208.432 158.399 207.448 160.778 207.453 163.258C207.458 165.737 208.453 168.112 210.215 169.859C211.976 171.606 214.361 172.583 216.844 172.577C219.326 172.572 221.706 171.586 223.46 169.833C223.461 169.832 223.461 169.832 223.461 169.831L253.103 140.319C253.104 140.318 253.104 140.317 253.105 140.317C253.979 139.45 254.674 138.419 255.148 137.284C255.622 136.147 255.866 134.929 255.866 133.697C255.866 132.466 255.622 131.248 255.148 130.111C254.674 128.977 253.981 127.948 253.108 127.081C253.107 127.08 253.105 127.078 253.103 127.076L223.507 97.3932Z" fill="#5F00D9" stroke="#5F00D9" stroke-width="4"/>
</g>
<defs>
<clipPath id="clip0_51_2">
<rect width="390" height="391" fill="white"/>
</clipPath>
</defs>
</svg>
