<svg width="115" height="118" viewBox="0 0 115 118" fill="none" xmlns="http://www.w3.org/2000/svg">
<path d="M46.2958 43.8683C46.3829 43.816 48.9865 42.1036 52.8788 42.0966C53.5771 42.0966 54.3169 42.1533 55.0914 42.2866L55.1201 42.2925L55.1482 42.2996C55.1509 42.2974 55.722 42.4361 56.7004 42.5803C57.6777 42.7228 59.0368 42.8664 60.5392 42.8664C62.8999 42.8696 65.5998 42.5015 67.7188 41.3143L68.6409 42.9636C66.0752 44.3877 63.0838 44.7515 60.5392 44.7548C57.4873 44.7537 55.053 44.2155 54.7431 44.1453C54.1277 44.0397 53.5044 43.9868 52.8799 43.9871C49.9794 43.9828 47.8442 45.1408 47.4148 45.3999C47.3532 45.4371 47.338 45.4474 47.338 45.4474L46.2958 43.8683ZM59.0925 53.381C58.7653 52.5259 58.6993 51.5919 58.6966 50.7541C58.6966 50.3881 58.7123 50.0415 58.7334 49.7365C56.7161 50.0059 54.1136 50.8642 51.9432 51.7318C50.3797 52.3512 48.8419 53.0336 47.3337 53.7772L46.4792 52.0913C46.4965 52.0832 48.5652 51.0391 51.2439 49.9767C53.934 48.9175 57.1844 47.8227 59.7788 47.7612L60.9135 47.7391L60.7307 48.8571C60.7328 48.8582 60.6977 49.0622 60.662 49.412C60.6252 49.7629 60.589 50.2461 60.59 50.7541C60.5857 51.4656 60.6712 52.2349 60.8572 52.6965C61.0887 53.1807 61.1363 53.1947 61.3937 53.218C61.4548 53.218 61.5311 53.2109 61.6263 53.1915C61.7551 53.1438 61.8805 53.0873 62.0016 53.0225C62.3207 52.8546 62.8437 52.5313 63.5673 51.9369C65.0146 50.7482 67.2645 48.4711 70.292 44.2014L71.8372 45.2941C65.6376 54.0213 62.4402 54.9298 62.0844 55.0248C61.8585 55.0789 61.6271 55.1068 61.3948 55.108L61.3505 55.1085C60.1801 55.1085 59.3688 54.2053 59.0925 53.381ZM54.3526 58.3719C53.5068 57.7413 52.5792 57.5351 51.6766 57.533C50.5013 57.5297 49.4132 57.9119 48.9773 58.0966C48.8313 58.1576 48.7745 58.1867 48.7745 58.1867L48.7399 58.204L40.8686 61.4555L40.1439 59.7096L47.9616 56.4813C48.2309 56.3545 49.7415 55.6511 51.6766 55.644C52.8686 55.6419 54.2509 55.9328 55.4889 56.8603C56.729 57.7872 57.7664 59.3112 58.4013 61.585L56.576 62.0925C56.0184 60.1075 55.1979 59.0062 54.3526 58.3719Z" fill="#748087"/>
<path d="M46.5462 62.607C46.5473 62.6059 47.2926 62.607 48.5197 62.5525C50.1195 62.4797 51.7162 62.3499 53.3067 62.1632C57.027 61.7319 61.4397 60.8077 63.9654 59.1617C63.9654 59.1606 64.0898 59.0813 64.3056 58.9252C64.5197 58.7703 64.8134 58.5473 65.1233 58.2866C65.7426 57.7759 66.133 57.3289 66.4705 56.7766L66.5917 56.6055L66.6236 56.5332L66.6636 56.4705C66.6782 56.4506 67.9324 54.5141 69.6869 52.4379C71.4721 50.3697 73.6322 48.1213 75.9838 47.5172L77.4597 48.8295C76.3981 49.059 73.8864 50.6337 72.4538 52.1917C71.0795 53.6142 69.8318 55.251 69.0627 56.3243C68.7948 56.6969 68.5335 57.0743 68.2791 57.4563C67.0692 59.4953 65.0487 60.6727 64.9973 60.7461C61.9405 62.6971 57.3835 63.5722 53.5316 64.0392C49.6869 64.497 46.5706 64.4954 46.5473 64.497V62.607H46.5462Z" fill="#748087"/>
<path d="M67.9059 60.5016C66.5938 60.5016 65.7923 60.2441 65.7161 60.2198L66.3148 58.4275C66.3148 58.4253 66.3191 58.4296 66.3813 58.4453C66.4446 58.462 66.5473 58.4863 66.6847 58.5112C66.9594 58.5603 67.3753 58.6127 67.9059 58.6127C70.9416 58.482 73.0352 57.2425 75.8188 55.1668L75.6869 57.6506C72.5917 59.972 69.7642 60.5021 67.9291 60.5021L67.9059 60.5016ZM16.6993 76.7332L16.7198 74.8437H16.7756C17.2271 74.8669 20.8021 74.712 22.7496 72.9245L22.7729 72.904L35.7761 62.7187L36.9443 64.2049L23.9876 74.3546C21.2607 76.711 17.4002 76.711 16.7756 76.7337L16.6993 76.7332Z" fill="#748087"/>
<path d="M32.8583 66.428L34.2742 65.175C34.2742 65.174 34.3088 65.2144 34.3964 65.3051C34.9638 65.8845 35.5817 66.4122 36.2428 66.882C37.4613 67.7496 39.1038 68.5669 40.7382 68.5583C40.8378 68.5583 40.9421 68.5539 41.0508 68.548C41.1466 68.5367 41.7015 68.4746 42.3564 68.3569C43.0654 68.2381 43.7285 68.0055 44.2001 67.8505L44.4035 67.7874L44.4662 67.7641C44.5279 67.7452 46.8972 66.8394 50.0606 66.8361H63.7047C63.7047 66.8361 63.7269 66.8372 63.8021 66.8372C64.9156 66.7989 75.4932 66.5376 82.5517 51.193L84.2726 51.9774C76.9346 68.0724 65.3223 68.7639 63.8021 68.7267C63.7036 68.7267 63.6479 68.724 63.6712 68.724H50.0611C47.973 68.7229 46.1233 69.2055 45.3575 69.4425C45.1958 69.4917 45.0887 69.5278 45.0314 69.5478C44.0974 69.8852 43.464 70.0709 42.6906 70.2172C42.2086 70.303 41.724 70.3734 41.2374 70.4283L41.2071 70.431L41.1942 70.4321C41.0443 70.4418 40.8929 70.4472 40.7377 70.4472C36.2596 70.3819 32.9589 66.4901 32.8583 66.428ZM32.8572 66.4275L32.8583 66.428L32.8572 66.4286V66.4275ZM1.72472 70.0072V65.3089L1.72742 65.2733C1.73445 65.2134 1.7907 64.5278 2.13142 63.6813C2.46836 62.8461 3.12926 61.7886 4.40833 61.2385L18.5024 55.4896C18.5879 55.4583 19.238 55.2348 20.3413 55.2348C22.53 55.2257 26.4446 56.1477 31.0671 60.9146H31.0681L29.709 62.2307C25.3467 57.7602 22.0076 57.1319 20.3413 57.1243C19.6566 57.1243 19.2472 57.2366 19.1601 57.262L5.13899 62.9806C4.04597 63.3871 3.65224 64.9812 3.62088 65.3726C3.61911 65.3836 3.61749 65.3946 3.61601 65.4056L3.61709 70.0078L1.72472 70.0072ZM36.324 57.5243C36.2347 57.527 36.1428 57.5286 36.0471 57.5286C32.1909 57.5162 29.483 54.9196 27.7777 52.5032C26.2239 50.299 25.4154 48.1439 25.2601 47.7142C24.835 46.9228 24.1541 46.7479 23.3234 46.7252C22.8758 46.7302 22.4307 46.7945 22 46.9163C21.9297 46.9368 21.9097 46.9439 21.9097 46.9439L21.8556 46.9622L19.2266 47.515L18.835 45.666L21.3602 45.1359C21.9963 44.9403 22.6578 44.8389 23.3234 44.8352C24.477 44.8115 26.146 45.2374 26.9757 46.9104L27.0043 46.9692L27.0254 47.0292C27.0254 47.0292 27.0654 47.1479 27.159 47.3855C27.2526 47.6235 27.3948 47.9685 27.5873 48.3831C27.9708 49.2112 28.5522 50.3206 29.3256 51.4143C30.8886 53.6239 33.139 55.6527 36.0476 55.6392C36.1271 55.6392 36.2142 55.6381 36.3072 55.6343L36.3499 55.6322L36.4018 55.6359C36.4018 55.6349 36.4608 55.6413 36.6257 55.6413C37.4651 55.6413 40.5062 55.4729 43.8664 53.2903L44.8989 54.8748C41.1293 57.3203 37.7063 57.5303 36.6257 57.5303C36.5251 57.5303 36.4245 57.5283 36.324 57.5243Z" fill="#748087"/>
<path d="M20.5663 52.8638L20.7409 50.9814C21.0746 51.0121 21.5251 51.0283 22.0254 51.0283C24.3753 51.0283 27.7939 50.7131 27.7993 50.712L27.9757 52.5934C27.9605 52.5944 24.5208 52.9173 22.0254 52.9183C21.4873 52.9183 20.993 52.9032 20.5663 52.8638ZM10.3191 52.0535L10.2683 51.979C10.2234 51.8964 9.17307 50.3773 9.16009 48.2093C9.15664 47.266 9.37681 46.3354 9.8026 45.4933L11.4938 46.3403C11.201 46.9198 11.0501 47.5603 11.0535 48.2093C11.0454 49.4752 11.6268 50.577 11.7972 50.8561L17.0633 56.1126H17.0644L15.7242 57.4487L10.3191 52.0535Z" fill="#748087"/>
<path d="M9.38886 45.5802C8.37209 44.3639 7.64251 42.8356 7.64413 41.0601C7.64305 40.0624 7.87182 39.0027 8.36506 37.9063L10.0919 38.6772C9.69605 39.5636 9.53813 40.3486 9.53813 41.0601C9.53218 42.9215 10.6625 44.4654 12.2666 45.7346C13.8561 46.9914 15.8415 47.8789 17.1612 48.3707C18.0406 48.7005 18.6014 48.8506 18.603 48.8517L18.1071 50.6753C18.0384 50.6321 12.4543 49.2047 9.38886 45.5802Z" fill="#748087"/>
<path d="M24.6825 42.2566C24.1904 42.1649 23.9183 42.1319 23.9173 42.1319L23.8967 42.1287L23.8767 42.1255C23.6696 42.0927 23.4601 42.0777 23.2504 42.0807C22.4202 42.0774 21.3894 42.2901 20.5927 42.5131C19.7929 42.735 19.2428 42.9503 19.2407 42.9514L19.2028 42.9655L19.1633 42.9773C18.6539 43.1263 18.1303 43.1873 17.6138 43.1873C14.6409 43.1549 11.669 41.3259 11.159 41.0204C8.96268 39.9132 8.12764 38.5177 8.13899 37.3268C8.14981 36.3345 8.63656 35.7536 8.70308 35.6651L8.73066 35.6316L8.76257 35.5998C12.1947 32.2867 18.5917 32.3294 19.6479 32.2857C19.7399 32.2857 19.7907 32.2867 19.7983 32.2867L19.7528 34.1757C19.7518 34.1757 19.7226 34.1746 19.6479 34.1746C18.7658 34.1309 12.6236 34.3975 10.1595 36.8754C10.0767 37.0113 10.0327 37.1672 10.0324 37.3262C10.0438 37.6296 10.1487 38.3417 12.0297 39.3431L12.0654 39.3609L12.106 39.3863C12.106 39.3852 12.2785 39.4964 12.6047 39.6789C12.9302 39.8613 13.3964 40.1064 13.9421 40.3504C15.0297 40.8406 16.4473 41.3054 17.6138 41.2984C17.9746 41.2984 18.3115 41.2558 18.6111 41.1699C19.0027 41.0258 21.2012 40.2031 23.2509 40.1901C23.5641 40.1901 23.8783 40.2101 24.1909 40.2619V40.263C24.6804 40.3364 29.8551 41.1894 33.364 43.826L31.7772 45.1184C29.4646 43.3515 26.1579 42.5266 24.6825 42.2566ZM19.5722 24.3909C19.5722 24.3909 19.2342 28.4398 14.9751 28.1024C14.9751 28.1024 12.1357 31.409 9.22877 29.9919C9.22877 29.9919 4.36128 32.4212 1.99513 28.0349C1.99513 28.0349 0.169821 24.3909 3.82044 22.569C3.82044 22.569 5.03732 18.0477 11.3921 18.5876C11.3921 18.5876 9.76744 18.2092 9.56679 16.6981C9.56679 16.6981 3.61763 15.7534 3.82044 10.7598C3.82044 10.7598 -5.96046e-07 7.4635 2.80638 3.87675C2.80638 3.87675 5.42672 0.573427 9.702 3.53935C9.702 3.53935 15.6512 3.26942 16.5976 7.85812C16.5976 7.85812 19.099 8.33049 19.3018 10.2874C19.3018 10.2874 19.5349 4.60339 24.3045 4.34912C24.3045 4.34912 27.8199 0.570188 31.2677 2.9995C31.2677 2.9995 34.9459 5.73005 32.1466 9.61263C32.1466 9.61263 33.0254 13.7964 29.1044 15.3485C29.1044 15.3485 28.0081 19.298 23.5019 18.4148C23.5019 18.4148 27.3056 17.4296 27.2839 14.0772C27.2839 14.0772 30.8653 12.9527 29.9394 9.33839C29.9394 9.33839 31.7501 7.20977 30.543 5.32192C30.543 5.32192 28.5208 2.48017 26.1168 5.88444C26.1168 5.88444 21.53 5.64313 21.2082 10.824C21.2082 10.824 19.4381 12.0689 19.4781 14.1177C19.4781 14.1177 18.2304 9.53921 15.2531 9.53921C15.2531 9.53921 14.2066 4.43873 8.9762 5.4828C8.9762 5.4828 6.25906 3.35688 4.63115 5.36241C4.63115 5.36241 2.99567 7.4635 5.51649 9.53921C5.51649 9.53921 5.71768 14.6397 10.5462 14.8405C10.5462 14.8405 11.8334 18.0936 15.2131 18.0936V18.6157C15.2131 18.6157 12.1958 18.6556 11.7534 20.2622C11.7534 20.2622 6.44294 19.3385 5.59762 23.4349C5.59762 23.4349 2.98215 24.8001 4.10871 27.21C4.10871 27.21 5.60032 29.9951 8.61493 27.7321C8.61493 27.7321 11.7528 29.9811 13.7647 26.6076C13.7642 26.6081 17.0909 27.3547 19.5722 24.3909Z" fill="#748087"/>
<path d="M8.8556 8.53483C8.8556 8.53483 14.2071 11.0246 15.6955 13.2736L15.0925 14.4386C15.0925 14.4386 8.13088 9.29817 8.8556 8.53483ZM8.49324 24.8809C8.49324 24.8809 12.6382 21.5473 16.4597 21.4669L16.9427 22.7118C16.9427 22.7118 9.37858 25.5638 8.49324 24.8809ZM22.7772 15.9647C22.7772 15.9647 26.6403 11.1849 27.2839 8.57477C27.2839 8.57477 26.1974 7.61061 21.8518 14.7598L22.7772 15.9647ZM19.9356 18.0394C19.9356 18.0394 24.1455 22.6319 24.9097 25.0417L23.3413 27.2108C23.3413 27.2108 20.9665 22.0704 19.0757 19.098C19.0757 19.098 18.6766 18.4783 19.0357 18.1338C19.0357 18.1333 19.5132 17.668 19.9356 18.0394ZM54.0146 32.7545H62.4532L62.9405 34.5619H53.5278L54.0146 32.7545ZM88.8486 17.6215C88.8486 17.6215 95.9081 7.82169 97.4489 4.74402H99.6398C99.6398 4.74402 94.8664 13.7967 98.4229 14.4629C98.4229 14.4629 102.805 14.9487 111.081 10.9803V13.2482C111.081 13.2482 94.6084 21.4285 95.0151 12.5194L90.3094 19.3231L88.8486 17.6215ZM94.2039 24.2627L113.595 15.8395V18.1884L104.833 21.5899C104.833 21.5899 102.641 22.5617 105.076 22.5617C105.076 22.5617 108.89 22.5617 111.081 21.8329V23.4524C111.081 23.4524 106.618 24.6671 101.83 24.3432C101.83 24.3432 96.8264 24.3227 95.6636 26.2062L94.2039 24.2627ZM23.6961 37.6169C23.6961 37.6169 26.6706 30.7339 28.0903 29.2493C28.0903 29.2493 34.5803 22.0963 35.5268 18.3849C35.5268 18.3849 36.1585 13.0161 38.5922 12.1388C38.5922 12.1388 41.219 10.7838 44.3829 12.7165L47.2223 12.9189L45.6674 14.6734L47.6279 16.4279C47.6279 16.4279 43.9773 17.4401 43.5717 20.9491C43.5717 20.9491 46.073 17.845 50.8053 16.8328L47.6955 14.4035L50.0617 11.1644L45.8702 11.2994C45.8702 11.2994 42.4224 9.27496 39.1774 9.8148C39.1774 9.8148 34.5803 10.6246 33.9043 16.2255C33.9043 16.2255 33.2958 20.3418 31.1325 22.3662C31.1325 22.3662 23.6284 30.1266 21.4651 37.6169H23.6961Z" fill="#748087"/>
<path d="M42.696 15.8422C42.2293 16.4608 41.0957 16.7907 40.497 16.3399C39.8983 15.8902 40.06 14.8305 40.5279 14.2113C40.9946 13.5926 41.8588 13.4561 42.4575 13.9063C43.0562 14.3565 43.1628 15.2235 42.696 15.8422ZM60.834 7.93288C61.5911 7.5836 63.1844 7.81142 63.5495 8.60607C63.9172 9.40019 62.921 10.461 62.1639 10.8097C61.4067 11.1585 60.4938 10.7973 60.1271 10.0021C59.7604 9.20692 60.0768 8.28 60.834 7.93288ZM47.3277 28.0336C46.8886 28.6166 45.8204 28.927 45.2564 28.5021C44.6928 28.0784 44.8453 27.0802 45.285 26.4971C45.7253 25.9146 46.5392 25.7856 47.1033 26.2099C47.6679 26.6343 47.7685 27.4505 47.3277 28.0336Z" fill="#748087"/>
<path d="M32.4846 40.1812L34.5127 41.3958L39.3802 34.3104C39.3802 34.3104 40.4619 32.8258 40.4619 30.5989C40.4619 30.5989 40.3737 27.1158 41.4759 26.0102C41.4759 26.0102 43.3012 23.6484 47.2223 24.2557C47.2223 24.2557 49.2504 24.7955 50.6701 23.9858L49.5208 26.0777L51.6842 27.0899C51.6842 27.0899 45.735 31.6786 48.1011 40.4511H48.5744C48.5744 40.4511 48.0335 30.3965 55.0644 26.8875L51.7518 25.4029L53.0362 21.8264C53.0362 21.8264 50.1796 23.0653 48.2363 22.7711C48.2363 22.7711 43.0984 21.5565 40.9351 23.4459C40.9351 23.4459 38.3586 25.134 38.4338 29.7891C38.4338 29.7891 38.3867 32.1256 37.2845 33.5681L32.4846 40.1812ZM102.272 52.0827C96.272 47.034 86.5057 35.6146 86.5057 35.6146C85.6728 34.7876 86.2618 36.6241 86.2618 36.6241C89.4359 44.4228 102.097 52.9183 102.097 52.9183C102.097 52.9183 102.692 53.3232 102.97 53.104C102.97 53.104 103.298 52.9086 102.272 52.0827Z" fill="#748087"/>
<path d="M76.3818 43.1282C76.3818 43.1282 66.0162 34.6704 66.0162 22.254C66.0162 22.254 66.5571 12.8968 57.0027 15.6856L58.4446 13.0766H55.47L56.7188 10.9803C56.7188 10.9803 57.272 9.84989 57.6333 8.84793C57.6333 8.84793 58.8956 4.61877 62.9519 4.439C62.9519 4.439 67.2839 3.85974 70.1065 7.14957C70.1065 7.14957 72.9746 10.3773 74.1293 11.6368C74.1293 11.6368 77.0849 14.4829 78.9968 16.1353C78.9968 16.1353 91.2553 26.6623 98.0157 39.6187C98.0157 39.6187 107.953 58.6801 109.914 62.742C109.914 62.742 112.736 67.3204 107.301 63.3714C107.301 63.3714 81.7907 47.8956 71.6057 22.973C71.6057 22.973 70.5527 20.9011 70.9816 23.7547C70.9816 23.7547 72.2363 34.0399 84.0671 46.3889C84.0671 46.3889 97.1147 60.155 106.985 65.7559C106.985 65.7559 112.19 69.3324 113.475 68.4552C113.475 68.4552 115 68.25 111.852 61.4371C111.852 61.4371 102.05 39.7758 92.788 27.7642C92.788 27.7642 87.0492 20.0346 82.5798 16.2249C82.5798 16.2249 75.7431 10.0253 74.3321 8.2622C74.3321 8.2622 69.1098 1.96974 63.5154 2.18891C63.5154 2.18891 57.4986 2.05395 55.8085 8.05975C55.8085 8.05975 54.9638 11.0797 51.8875 14.5379H55.7409L53.7128 17.8445C53.7128 17.8445 61.1493 15.8201 62.907 18.5868C62.907 18.5868 64.0562 20.5437 63.9886 23.5129C63.9886 23.5129 63.6506 35.6594 76.0898 43.7571L76.3818 43.1282ZM67.6842 87.7552H21.993C21.6677 87.7552 21.3557 87.8842 21.1256 88.1138C20.8956 88.3435 20.7664 88.6549 20.7664 88.9796V107.08C20.7664 107.536 20.5295 107.536 20.5295 107.536C20.2504 107.536 20.1493 107.257 20.1493 107.257C20.1465 107.255 20.1436 107.254 20.1406 107.252L9.62088 88.9904C8.80584 87.6348 7.52569 87.7552 7.52569 87.7552H3.06382C2.7385 87.7552 2.42651 87.8842 2.19647 88.1138C1.96644 88.3435 1.83721 88.6549 1.83721 88.9796V115.773C1.83721 116.098 1.96644 116.409 2.19647 116.639C2.42651 116.869 2.7385 116.998 3.06382 116.998H6.19957C6.52488 116.998 6.83688 116.869 7.06691 116.639C7.29694 116.409 7.42618 116.098 7.42618 115.773V97.0454C7.42618 97.0454 7.41049 96.7744 7.64251 96.7744C7.64251 96.7744 7.86858 96.7782 8.06923 97.1621L18.6998 115.904C18.6998 115.904 19.3164 116.988 20.523 116.988H21.8983C21.9302 116.991 21.9605 116.998 21.993 116.998H25.1287C25.2898 116.998 25.4493 116.967 25.5981 116.905C25.7469 116.843 25.8822 116.753 25.9961 116.64C26.11 116.526 26.2003 116.391 26.262 116.242C26.3236 116.094 26.3553 115.935 26.3553 115.774V92.3439H67.6842C68.0094 92.3438 68.3213 92.2147 68.5513 91.9852C68.7813 91.7556 68.9106 91.4442 68.9108 91.1196V88.979C68.9105 88.6545 68.7811 88.3433 68.5511 88.1138C68.3212 87.8843 68.0093 87.7554 67.6842 87.7552ZM90.3537 115.702C90.3536 116.027 90.2243 116.338 89.9943 116.568C89.7643 116.797 89.4524 116.926 89.1271 116.926H85.901C85.5757 116.926 85.2638 116.797 85.0338 116.568C84.8038 116.338 84.6746 116.027 84.6744 115.702V88.9326C84.6746 88.6079 84.8038 88.2966 85.0338 88.067C85.2638 87.8374 85.5757 87.7084 85.901 87.7083H89.1271C89.4524 87.7084 89.7643 87.8374 89.9943 88.067C90.2243 88.2966 90.3536 88.6079 90.3537 88.9326V115.702ZM82.2088 116.859C80.6804 117.235 79.1774 117.169 79.1774 117.169C72.2088 117.169 72.5522 110.609 72.5522 110.609V88.9326C72.5523 88.6079 72.6816 88.2966 72.9116 88.067C73.1416 87.8374 73.4535 87.7084 73.7788 87.7083H77.0049C77.3301 87.7084 77.642 87.8374 77.8721 88.067C78.1021 88.2966 78.2313 88.6079 78.2315 88.9326V109.124C78.1871 112.845 80.8361 113.089 82.2445 112.957C82.2445 112.957 83.099 112.766 83.099 113.57V115.719C83.0979 115.719 83.1823 116.654 82.2088 116.859Z" fill="#748087"/>
<path d="M48.7144 107.983H34.2645C34.4262 111.661 36.2055 113.057 39.4008 113.057C41.4597 113.057 43.073 111.866 43.7631 110.741C44.0211 110.322 44.4337 110.32 44.4337 110.32H48.2428C48.2428 110.32 49.0817 110.248 48.7572 110.975C47.0568 115.491 43.7177 117.43 39.1985 117.43C32.6057 117.43 28.5208 112.853 28.5208 106.314C28.5208 99.9801 32.848 95.1576 39.1985 95.1576C45.974 95.1576 49.5992 100.172 49.5992 107.047C49.5998 107.048 49.6593 107.983 48.7144 107.983ZM44.0227 104.026C43.497 101.084 41.8275 99.5304 39.0368 99.5304C35.397 99.5304 34.345 102.391 34.2645 104.026H44.0227ZM112.803 107.983H98.3532C98.5149 111.661 100.295 113.057 103.49 113.057C105.548 113.057 107.162 111.866 107.852 110.741C108.11 110.322 108.522 110.32 108.522 110.32H112.331C112.331 110.32 113.171 110.248 112.845 110.975C111.145 115.491 107.807 117.43 103.287 117.43C96.6944 117.43 92.6095 112.853 92.6095 106.314C92.6095 99.9801 96.9373 95.1576 103.287 95.1576C110.063 95.1576 113.688 100.172 113.688 107.047C113.689 107.048 113.748 107.983 112.803 107.983ZM108.111 104.026C107.585 101.084 105.916 99.5304 103.125 99.5304C99.4857 99.5304 98.4332 102.391 98.3532 104.026H108.111ZM56.2315 110.715C56.6328 112.645 58.5333 113.258 60.5646 113.258C62.3034 113.258 64.1298 112.86 64.1298 110.841C64.1298 109.105 61.9389 108.851 57.814 107.964C54.4976 107.237 51.1806 105.714 51.1806 102.04C51.1806 96.7108 55.7912 95.3379 60.2818 95.3379C64.5641 95.3379 68.5273 96.6854 69.3753 101.076L69.391 101.142C69.5852 102.07 68.5841 102.033 68.5841 102.033L64.9946 102.166C64.0925 102.213 63.9172 101.464 63.9172 101.464C63.4629 99.844 61.9313 99.376 60.119 99.376C58.8248 99.376 56.9248 99.6178 56.9248 101.314C56.9248 103.372 60.1601 103.655 63.4359 104.422C66.7929 105.19 69.8902 106.437 69.8902 110.313C69.8902 115.804 65.2964 117.34 60.5241 117.34C55.9194 117.34 51.4246 115.706 50.768 110.816C50.768 110.816 50.5982 109.993 51.5717 109.993H55.1092C56.1622 109.993 56.2315 110.715 56.2315 110.715ZM113.153 91.5714V87.7952C113.153 87.4432 112.872 87.1846 112.532 87.2202L94.3337 89.1048C93.9924 89.1399 93.7128 89.4568 93.7128 89.8093V91.6427C93.7128 91.9941 93.9941 92.2835 94.3369 92.2845H112.429C112.429 92.284 113.153 92.4076 113.153 91.5714ZM83.2017 99.078C83.2016 99.3419 83.0964 99.595 82.9094 99.7815C82.7224 99.9681 82.4688 100.073 82.2044 100.073H71.2158C71.0849 100.073 70.9553 100.047 70.8344 99.9972C70.7135 99.9472 70.6037 99.8739 70.5112 99.7815C70.4187 99.6891 70.3453 99.5794 70.2953 99.4587C70.2452 99.338 70.2195 99.2086 70.2196 99.078V96.9504C70.2196 96.4009 70.6652 95.9555 71.2158 95.9555H82.2044C82.755 95.9555 83.2017 96.4009 83.2017 96.9504V99.078ZM108.852 74.6737L104.867 63.9987L102.393 61.9889L106.628 74.2137C106.628 74.2137 107.677 76.5998 106.209 76.5998H104.7C104.7 76.5998 103.621 76.6975 103.315 75.7625L100.17 66.7195C99.8188 65.8158 99.6544 66.4237 99.6544 66.4237C99.6371 66.6051 99.616 66.7017 99.7501 67.4726L101.554 75.9714C101.554 75.9714 101.754 77.0598 100.757 77.855L99.6663 78.8181C99.6663 78.8181 98.5933 79.6656 98.2401 78.5249L94.0465 60.3974C94.0465 60.3974 93.5846 58.6807 93.2488 59.5601L96.1731 77.4188C96.4743 79.7655 96.6858 80.8074 96.801 81.2522L96.8134 81.331C96.8134 81.331 97.179 82.95 98.8918 82.3999C99.3817 82.2702 99.8342 82.0276 100.213 81.6917C100.227 81.6814 100.239 81.6755 100.253 81.6652L103.188 78.776L108.515 78.5665C108.516 78.567 110.446 78.7338 108.852 74.6737ZM47.3342 47.3698C42.2661 49.9465 39.1428 50.5911 37.3624 50.5862C36.4375 50.5851 35.8761 50.4205 35.5489 50.272C35.2142 50.0852 35.1628 49.7727 35.185 49.5303C35.2591 49.0649 35.5933 48.4921 36.2001 47.8962C37.2385 46.8618 38.947 45.8777 40.3759 45.1964C40.9759 44.9086 41.5848 44.6398 42.2017 44.3904C42.6674 44.2036 42.94 44.1091 42.94 44.108L42.3083 42.3271C42.2791 42.3384 40.1433 43.0904 37.9562 44.3261C36.8626 44.9448 35.7523 45.6833 34.8675 46.5546C34.0335 47.3838 33.3532 48.3799 33.2866 49.587C33.2845 49.5994 33.2807 49.6069 33.2785 49.6204C33.2785 49.6204 33.0671 51.3663 34.6879 51.9914C35.2488 52.2473 36.0752 52.46 37.2861 52.4768H37.3618C39.59 52.473 42.9605 51.7075 48.1915 49.0536L47.3342 47.3698ZM25.9362 67.3242C25.9205 67.2351 25.9746 66.0885 24.9886 64.7545C24.2282 63.6527 22.8075 62.4386 20.4959 61.9953L19.1769 63.501C20.7188 63.8081 22.3342 64.5693 23.0979 65.3759L23.0984 65.3769C23.0984 65.3769 23.2288 65.5114 23.3926 65.7608C23.4072 65.7861 23.4251 65.8115 23.4375 65.8369L23.444 65.8472C23.8336 66.4726 24.0401 67.1945 24.04 67.931L24.0406 67.9331L23.9659 72.4187L25.8578 71.9388V71.9377L25.9508 67.41L25.9362 67.3242Z" fill="#748087"/>
</svg>
