<svg width="133" height="133" viewBox="0 0 133 133" fill="none" xmlns="http://www.w3.org/2000/svg">
<g clip-path="url(#clip0_13_304)">
<path d="M21.8852 116.92C21.7008 116.292 21.1085 114.889 20.9631 113.855C20.6306 111.564 21.8125 110.052 22.9217 109.681C24.1764 109.348 24.6569 109.977 25.1375 111.416C25.7661 113.632 25.8389 116.513 25.6181 120.651C25.3583 126.301 22.5165 133.135 15.4976 132.987C9.43988 132.839 6.74351 128.924 6.44997 122.942C6.30191 120.097 6.52271 117.292 7.70464 113.302C8.33327 111.159 8.88657 110.385 10.8062 109.977C12.3207 109.681 12.1726 111.271 11.8401 113.154C11.1024 117.289 10.7309 119.284 11.027 123.976C11.2868 128.924 13.5753 130.883 16.0509 130.883C19.7811 130.956 21.4436 127.854 22.1086 123.35C22.6593 119.762 22.2177 118.027 21.8852 116.92ZM101.293 121.833C102.735 121.833 103.176 123.532 102.807 124.602C102.475 125.636 101.22 126.818 99.298 127.15C98.8902 126.08 98.6694 121.833 101.293 121.833ZM74.3293 124.158C74.3293 122.976 73.7007 122.014 72.963 122.014C72.3343 122.014 70.8952 122.716 70.8952 124.895C70.8952 126.631 71.5239 127.444 71.781 127.812C73.776 127.186 74.3293 125.524 74.3293 124.158ZM52.8727 110.086C52.761 108.977 51.9116 108.239 50.7296 108.239C49.436 108.239 48.1813 109.605 48.3294 111.341C48.4021 112.486 49.0671 113.408 50.3971 113.408C51.9116 113.411 53.0208 111.676 52.8727 110.086ZM64.0998 114.149C63.9881 112.229 63.5101 111.341 62.4736 111.416C61.1073 111.489 60.4786 115.811 60.7384 120.355C60.9228 123.308 61.367 123.789 61.7723 123.752C62.549 123.716 64.3595 118.396 64.0998 114.149ZM109.824 121.388C108.974 124.934 106.39 130.143 102.511 130.143C101.626 130.143 100.036 129.81 100.036 128.888C100.036 127.927 106.093 127.779 106.093 123.163C106.093 121.427 104.506 119.027 102.179 119.027C99.0772 119.027 96.0483 122.425 96.0483 127.116C96.0483 131.327 98.6694 132.693 101.293 132.693C105.836 132.693 108.605 128.963 110.047 125.862C110.748 127.929 111.156 132.693 112.892 132.693C113.593 132.693 114.073 132.361 114.887 130.478C116.954 125.862 118.949 120.542 121.718 120.542C122.752 120.542 122.124 122.425 124.599 122.425C125.781 122.425 126.594 121.464 126.594 120.357C126.594 118.77 125.152 117.549 122.937 117.549C116.437 117.549 115.071 127.262 114.035 127.262C112.299 127.262 112.853 119.469 111.634 119.469C110.525 119.469 109.972 120.796 109.824 121.388ZM54.6807 129.662C55.7145 129.662 57.4887 129.329 58.8915 127.077C58.0784 125.306 57.5251 121.721 57.4498 120.394C57.0445 113.71 59.6292 107.429 62.4347 107.244C64.5024 107.133 66.1649 109.091 66.3493 112.229C66.8663 120.575 64.0972 124.048 62.6918 127.038C62.9126 128.184 64.9076 130.179 66.7546 130.179C67.4559 130.179 68.269 129.846 68.4898 129.55C68.3417 129.07 68.1937 128.441 68.1937 127.555C68.1937 122.716 71.2953 118.653 73.9916 118.653C76.1347 118.653 77.353 121.498 77.353 123.344C77.353 125.56 75.5061 127.334 72.737 129.07C73.2175 129.55 74.1033 129.883 74.88 129.883C78.8311 129.883 80.8624 125.119 82.4132 120.76C82.673 119.947 83.1899 118.765 84.1485 118.765C85.811 118.765 86.5123 129.659 89.2451 129.659C90.427 129.659 91.3881 127.259 91.3881 125.376C91.3881 124.009 90.9076 123.861 90.9076 121.866C90.9076 119.651 92.0895 117.804 93.6767 117.804C94.6378 117.804 95.0067 118.765 95.0067 119.947C95.0067 124.378 91.8297 132.579 87.141 132.579C83.6315 132.579 83.8913 126.521 82.634 126.521C81.2313 126.521 79.309 132.652 72.5136 132.652C71.4044 132.652 70.2224 132.099 69.2639 130.989C67.6014 132.099 66.235 132.577 64.6479 132.577C62.0996 132.577 60.9904 129.956 59.9565 129.956C58.7018 129.956 57.3355 132.652 53.1974 132.652C49.8724 132.652 49.3191 128.257 48.1735 128.257C47.1397 128.257 45.5525 132.652 43.8147 132.652C40.8975 132.652 40.3052 125.007 37.7569 125.007C35.7619 125.007 29.447 132.764 27.7118 132.616C27.0104 132.543 26.7143 132.026 26.7896 131.322C26.9013 130.361 27.7118 127.812 28.0443 126.594C28.5976 124.49 29.1145 122.199 29.4107 121.461C29.7068 120.723 30.4445 120.207 31.0732 120.243C31.3693 120.279 31.4784 120.833 31.5537 121.313C31.8862 123.012 32.4032 124.747 32.9201 124.747C33.8812 124.747 37.0945 118.617 38.9415 118.617C41.2326 118.617 41.4898 128.257 44.5914 128.257C45.6252 128.257 46.4019 127.002 47.0669 125.488C47.1397 122.939 47.8436 119.282 49.9114 119.282C51.3531 119.282 52.0544 122.531 51.0206 125.339C51.0258 128.849 53.2416 129.662 54.6807 129.662Z" fill="#1766A6"/>
<path d="M102.696 21.519C102.179 21.519 101.441 21.519 101.033 20.7059C100.701 20.0409 100.812 18.9707 100.184 18.5265C100.812 18.7109 101.477 18.7109 101.994 18.7109C103.657 18.7109 105.208 17.5653 106.426 17.5653C107.239 17.5653 107.496 18.0823 107.496 18.5992C107.496 20.2279 104.247 21.519 102.696 21.519ZM103.509 25.657C107.312 25.657 110.785 22.6282 110.785 19.9318C110.785 18.6771 110.195 17.6796 108.681 17.4952C108.941 17.8277 109.05 18.0849 109.05 18.6771C109.05 20.7085 105.984 22.9243 102.659 22.9243C101.441 22.9243 101.072 23.7737 101.072 24.2179C101.106 25.2492 102.067 25.657 103.509 25.657ZM103.213 27.2078C103.693 30.6783 108.938 35.3697 110.377 35.2606C111.338 35.1878 111.707 30.7173 111.707 27.2078C111.707 25.2128 111.819 23.6257 110.746 23.2568C109.086 26.6545 104.652 27.3559 103.213 27.2078Z" fill="#1766A6"/>
<path d="M20.8514 50.2179C22.1061 50.2179 21.8489 42.6094 23.8439 42.6094C24.3245 42.6094 24.4726 43.0899 24.4726 43.6796C24.4726 45.4148 23.6231 47.9268 23.6231 49.3295C23.6231 50.0309 23.8076 50.2517 24.1401 50.2517C25.0259 50.2517 26.5403 41.869 28.0547 41.869C28.5353 41.869 28.7561 42.3496 28.7561 42.8302C28.7561 44.6018 26.5403 49.6256 26.5403 51.0673C26.5403 51.2881 26.613 51.4726 26.8001 51.4726C27.7222 51.4726 29.5328 47.5215 30.1251 45.5629C30.4576 44.529 30.9018 43.9757 31.307 43.9757C31.6759 43.9757 32.0084 44.381 32.0084 45.2304C32.0084 47.189 30.1614 51.8414 28.5743 54.982C27.3196 57.3822 25.3973 60.8553 25.3973 62.8113C25.3973 63.8088 25.5818 64.8063 27.0235 66.061C24.696 65.9129 23.7374 65.6921 22.849 63.8816C18.9344 71.6745 30.0523 70.8978 26.2468 77.805C25.5454 76.5503 20.0799 75.2931 20.0799 68.0534C20.0799 61.8112 25.5818 58.1563 25.5818 55.5327C25.5818 55.0158 25.3973 54.5716 24.9168 54.1663C23.6985 53.1325 23.6621 52.283 22.7373 52.283C22.036 52.283 21.1865 53.9092 22.0723 55.3119C22.3685 55.7925 22.6256 56.0886 22.6256 56.5302C22.6256 57.5641 20.9995 60.2968 19.8929 60.2968C18.7473 60.2968 17.8979 57.4887 17.8979 52.948C17.8979 48.9217 18.8201 44.8589 19.9293 44.8589C20.2618 44.8589 20.3735 45.0797 20.3735 45.3759C20.3735 45.8564 20.2254 46.8176 20.2254 48.4047C20.1111 50.0698 20.5189 50.2179 20.8514 50.2179Z" fill="#1766A6"/>
<path d="M30.1952 60.928C31.746 60.928 33.0032 59.7824 33.0032 57.2705V53.5403C33.0032 52.0986 33.1149 50.5114 34.0735 49.3658C33.9618 49.8464 33.9618 50.3633 33.9618 50.8439C33.9618 53.9845 35.7334 56.1613 35.7334 59.1902C35.7334 60.3358 35.4009 60.9618 34.5151 60.9618C33.6656 60.9618 33.7384 60.1851 33.5539 60.1851C33.4059 60.1851 33.1851 60.6657 33.1851 61.1826C33.1851 61.9593 33.7384 63.1412 35.2528 63.1412C36.5828 63.1412 37.6167 61.9229 37.6167 60.5929C37.6167 57.3069 35.0684 53.6494 35.0684 50.14C35.0684 48.5892 35.4736 47.5917 35.8061 46.7786C35.8061 54.0546 41.9729 59.372 41.9729 62.4009C41.9729 63.1023 41.456 63.6556 40.6793 63.6556C39.8299 63.6556 39.4247 62.9906 39.4247 62.4736C39.4247 62.2139 39.3883 62.1411 39.2766 62.1411C39.0558 62.1411 38.3908 62.8789 38.3908 63.84C38.3908 65.0583 39.3883 66.5 41.1988 66.5C43.2666 66.5 44.4121 64.7284 44.4121 63.175C44.4121 59.3331 36.9153 53.4987 36.9153 47.2929C36.9153 46.2227 37.0997 44.5238 37.8764 43.1938C33.037 46.2954 31.5615 50.4335 31.5615 54.052C31.5615 57.1926 31.4498 58.7798 29.8263 58.7798C28.9769 58.7798 28.7561 58.0031 28.4599 58.0031C28.2391 58.0031 28.1274 58.6681 28.1274 58.8525C28.2002 60.1903 29.1977 60.928 30.1952 60.928Z" fill="#1766A6"/>
<path d="M85.6318 19.7474C86.1124 19.4512 88.1437 19.9318 90.8401 18.6018C91.1726 18.4174 91.5051 18.342 91.8012 18.342C93.0949 18.342 92.7624 19.8201 93.9443 19.8201C94.8665 19.8201 96.0484 19.0434 96.7134 19.0434C97.8226 19.0434 99.3734 22.4775 99.3734 24.1036C99.3734 25.9869 96.5653 27.0961 93.2429 27.0961C88.3671 27.0961 85.45 22.849 85.45 20.1162C85.411 19.8954 85.5201 19.8201 85.6318 19.7474ZM93.6092 24.3998C95.2353 24.3998 96.4173 23.662 96.4173 23.2178C96.4173 23.0698 96.1965 22.9581 95.7159 22.9581C95.2353 22.9581 94.2742 22.9217 92.5026 22.6256C90.9518 22.3658 89.8062 21.7761 89.362 21.7761C89.214 21.7761 89.1412 21.8489 89.1412 21.9606C89.1412 22.9243 90.8765 24.3998 93.6092 24.3998Z" fill="#1766A6"/>
<path d="M30.9693 74.7424C29.751 75.0385 27.8287 76.9218 27.8287 79.9507C27.8287 83.5328 31.6707 89.0736 37.9856 89.0736C43.3419 89.0736 44.633 85.3798 44.633 82.8678C44.633 77.327 41.2352 73.4487 36.8036 73.4487C34.4034 73.4487 32.224 75.2203 32.224 77.8076C32.224 80.2078 34.0709 83.8653 38.3908 83.8653C40.4222 83.8653 41.6405 82.3873 41.6405 80.7248C41.6405 79.0623 40.126 76.8101 37.9466 76.8101C37.2816 76.8101 36.801 77.2543 36.801 77.9557C36.801 78.8415 38.0193 79.7273 39.4974 79.7273C39.8663 79.7273 40.1624 79.6545 40.3105 79.5792C40.3832 79.6909 40.4222 79.8753 40.4222 80.0234C40.4222 80.8728 39.6091 81.3898 38.3908 81.3898C36.5075 81.3898 34.7333 79.987 34.7333 77.8076C34.7333 76.4776 35.8789 75.5554 37.5024 75.5554C40.7521 75.5554 42.7107 78.4362 42.7107 81.3534C42.7107 83.9381 41.269 85.4525 38.3518 85.4525C32.5227 85.3408 29.6783 80.0961 30.9693 74.7424Z" fill="#1766A6"/>
<path d="M72.7058 96.1626C74.4774 96.1626 74.3683 96.0146 74.9216 96.0146C75.4749 96.0146 75.5113 96.3471 75.5113 96.5679C75.5113 97.3809 73.7007 98.3784 70.5264 98.3784C68.6431 98.3784 67.5339 97.3809 67.2014 96.3107C65.3544 97.4926 62.5853 98.5265 59.8526 98.5265C52.3558 98.5265 50.4335 95.2768 48.1086 94.204C46.298 93.3909 43.5653 94.9807 39.726 90.6946C40.2429 90.8063 40.9443 90.8426 41.4976 90.8426C44.8589 90.8426 46.6695 89.1801 46.6695 86.5591C46.6695 86.2266 46.6331 85.8577 46.5968 85.5252C47.6306 85.9305 49.9581 87.6683 50.5114 90.8063C50.5842 91.1751 52.0986 91.5076 53.0234 91.5076C54.3534 91.5076 56.0159 90.9543 56.273 88.8113C60.6683 88.4424 63.6218 85.8577 64.2504 82.5691C65.8376 83.086 67.6118 84.5277 68.0534 85.2291C68.682 85.0083 69.4198 84.8966 70.2328 84.8966C71.4148 84.8966 72.7084 85.1174 74.2956 85.598C74.3683 85.1174 74.4436 84.5277 75.1814 84.5277C76.2906 84.5277 75.9944 85.746 76.3633 86.411C76.5477 86.7799 77.4725 87.0007 77.4725 87.741C77.4725 88.4424 76.8828 88.7022 76.5114 88.7022C76.3633 88.7022 76.1789 88.6658 76.0672 88.6294C75.3294 88.8892 75.2905 94.1702 72.2252 94.1702C69.9731 94.1702 67.8664 92.2869 66.9442 89.9594C66.6844 89.2581 66.1311 88.8139 65.6142 88.8139C65.0245 88.8139 64.692 88.9256 63.9881 89.6997C62.0294 91.8427 58.707 93.726 54.6443 93.726C53.3896 93.726 52.4285 93.6143 52.1687 93.6143C52.0207 93.6143 52.0207 93.6507 52.0207 93.6871C52.0207 93.9468 53.2753 94.9417 55.9717 94.9417C62.3983 94.9417 63.9855 91.3232 65.0193 91.3232C65.1674 91.3232 65.609 91.3232 65.8688 91.9129C67.3858 95.3859 70.6744 96.1626 72.7058 96.1626ZM69.8977 88.8502C69.8977 89.6633 70.5627 90.3283 71.3758 90.3283C72.1889 90.3283 72.8539 89.6633 72.8539 88.8502C72.8539 88.0372 72.1889 87.3722 71.3758 87.3722C70.5627 87.4085 69.8977 88.0735 69.8977 88.8502Z" fill="#1766A6"/>
<path d="M98.8538 70.6043C98.3369 70.6043 97.7836 71.0095 97.7836 72.007C97.7836 73.1162 98.633 73.7786 99.1136 74.002C99.3734 74.1501 99.7786 74.2981 100.184 74.2981C101.254 74.2981 102.104 74.002 102.104 73.1162C102.067 72.007 100.444 70.6043 98.8538 70.6043ZM94.9028 72.8564C94.1261 72.8564 89.879 78.5453 87.1462 78.5453C86.4812 78.5453 85.9279 77.2906 85.9279 76.3659C85.9279 75.8489 86.2604 75.4801 87.4423 75.2203C93.7209 73.7786 92.3545 69.0898 97.7109 69.0898C100.664 69.0898 103.989 71.1212 103.989 75.6281C103.989 80.4676 97.1186 86.45 96.0848 86.45C95.2353 86.45 94.3132 85.2317 94.3132 84.455C94.3132 84.1952 94.4248 83.8653 95.1626 83.5692C98.672 82.1664 100.664 78.9531 100.664 77.327C100.664 76.9581 100.48 76.5893 99.9994 76.5893C99.3708 76.5893 96.7134 82.647 93.7572 82.647C91.6895 82.647 89.6218 80.8001 89.6218 79.9143C89.6218 78.4362 95.5678 75.7398 95.5678 73.7085C95.5678 72.8954 95.1989 72.8564 94.9028 72.8564Z" fill="#1766A6"/>
<path d="M22.5139 24.9167C22.5139 24.9167 21.4437 25.7298 20.15 25.7298C18.5629 25.7298 17.342 24.5478 17.342 22.9217C17.342 21.7761 17.9316 20.6306 19.2616 20.0409C19.2253 20.2617 19.2253 20.4461 19.2253 20.6695C19.2253 22.7009 20.3708 24.2907 22.5139 24.9167ZM30.3432 31.9356C29.5302 32.8967 28.6807 34.4839 28.6807 36.1464C28.6807 38.105 29.899 39.7649 31.746 39.7649C33.5565 39.7649 34.367 38.2141 34.367 36.6633C34.406 34.1877 32.1512 32.4889 30.3432 31.9356ZM18.1914 33.3747C18.1187 33.4864 18.0797 33.6344 18.0797 33.7799C18.0797 34.1124 18.4486 34.4813 18.7811 34.4813C19.0772 34.4813 19.2616 34.4085 19.4097 34.4085C20.2955 34.4085 21.293 35.0372 22.6957 35.0372C23.5452 35.0372 24.5427 34.7774 25.761 34.1514C28.382 32.8214 29.4185 29.5717 29.4185 29.0184C29.4185 28.317 28.8652 28.4287 28.3846 27.7637C27.904 27.1351 28.0885 26.5454 27.7949 26.2493C27.6105 26.0649 27.0936 26.0649 26.4286 25.9895C26.2078 25.9532 25.9116 25.9532 25.6155 25.9532C24.3972 25.9532 22.9945 26.1012 21.3683 27.1351C18.2278 29.2028 18.7083 32.5642 18.1914 33.3747ZM26.7974 28.8703C27.0572 29.2028 27.7586 29.647 27.7586 29.9042C27.7586 30.4211 27.4624 31.0861 26.8728 31.0861C25.5791 31.0861 24.5816 29.1275 24.5816 28.0573C24.5816 27.3559 24.9869 27.2806 25.5428 27.2806C25.8025 27.2806 25.9116 27.3169 26.0961 27.4286C26.3896 27.5767 26.3896 28.317 26.7974 28.8703ZM23.3997 33.3383C22.1814 33.3383 20.8878 31.8239 20.8878 30.4939C20.8878 29.7561 21.4411 28.8314 21.8489 28.8314C21.997 28.8314 22.0697 28.9431 22.1087 29.2002C22.3295 31.0108 23.5114 32.0083 24.5842 32.5252C24.6959 32.598 24.7687 32.6369 24.7687 32.7097C24.7661 32.9694 24.0647 33.3383 23.3997 33.3383ZM26.5377 24.1062C26.7221 23.5166 26.8702 22.7762 26.8702 22.0021C26.8702 20.2305 26.0571 17.5705 23.5841 17.5705C22.1424 17.5705 21.1475 18.7161 21.1475 20.0461C21.1086 22.9243 23.9894 24.1062 26.5377 24.1062ZM17.0458 38.731C17.0458 41.5001 17.8953 42.8301 19.3733 42.8301C20.5553 42.8301 22.1061 41.9807 23.9894 40.3935C22.5477 40.726 21.4774 40.9468 20.4799 40.9468C19.1889 40.9468 18.155 40.4299 17.0458 38.731ZM18.3395 35.4814C18.3031 35.6658 18.3031 35.8502 18.3031 36.0347C18.3031 37.7699 19.2253 38.6947 20.4072 38.6947C21.3294 38.6947 22.3658 38.1414 23.3244 36.9231C22.9191 36.9958 22.4386 37.0348 21.9944 37.0348C20.667 37.0322 19.2253 36.6997 18.3395 35.4814ZM27.3144 34.9644C26.4649 35.1852 24.7297 36.2191 24.7297 38.0297C24.7297 39.3597 25.7636 40.1727 27.0208 40.1727C27.6858 40.1727 28.1664 40.0247 28.4625 39.8039C27.4287 38.8064 27.0598 37.7361 27.0598 36.6269C27.0546 35.8866 27.1663 35.406 27.3144 34.9644ZM28.608 24.9557C28.608 25.7687 29.273 26.4337 30.0861 26.4337C30.8991 26.4337 31.5641 25.7687 31.5641 24.9557C31.5641 24.1426 30.8991 23.4776 30.0861 23.4776C29.273 23.4776 28.608 24.1426 28.608 24.9557ZM30.5277 28.2417C30.5277 29.0548 31.1927 29.7198 32.0057 29.7198C32.8188 29.7198 33.4838 29.0548 33.4838 28.2417C33.4838 27.4286 32.8188 26.7636 32.0057 26.7636C31.1927 26.7636 30.5277 27.4286 30.5277 28.2417Z" fill="#1766A6"/>
<path d="M87.5904 46.1915C87.5904 45.4538 88.2554 44.8252 88.9567 44.8252C89.7698 44.8252 90.3984 45.4538 90.3984 46.1915C90.3984 47.041 89.7698 47.6332 88.9567 47.6332C88.2554 47.6332 87.5904 47.041 87.5904 46.1915ZM74.7372 34.9281C74.7372 35.7412 75.4022 36.4062 76.2152 36.4062C77.0283 36.4062 77.6933 35.7412 77.6933 34.9281C77.6933 34.115 77.0283 33.45 76.2152 33.45C75.4022 33.45 74.7372 34.115 74.7372 34.9281ZM73.5189 40.0974C73.5189 41.243 74.48 42.1652 75.5866 42.1652C76.7322 42.1652 77.6907 41.204 77.6907 40.0974C77.6907 38.9519 76.7296 38.0297 75.5866 38.0297C74.441 37.9933 73.5189 38.9519 73.5189 40.0974ZM78.1349 37.7336C78.1349 38.9882 79.1324 39.9494 80.3507 39.9494C81.6054 39.9494 82.6029 38.9519 82.6029 37.7336C82.6029 36.4789 81.6054 35.5178 80.3507 35.5178C79.096 35.5178 78.1349 36.5153 78.1349 37.7336ZM78.3193 33.0058C78.3193 33.7825 78.948 34.4086 79.6857 34.4086C80.4624 34.4086 81.0884 33.7799 81.0884 33.0058C81.0884 32.2317 80.4598 31.6031 79.6857 31.6031C78.909 31.6031 78.3193 32.2317 78.3193 33.0058ZM84.9304 29.499C84.9304 30.2757 85.559 30.9017 86.3331 30.9017C87.1098 30.9017 87.7358 30.2731 87.7358 29.499C87.7358 28.7249 87.1072 28.0963 86.3331 28.0963C85.559 28.0963 84.9304 28.7223 84.9304 29.499ZM82.1976 33.967C82.1976 35.2606 83.2679 36.2945 84.5251 36.2945C85.8188 36.2945 86.8526 35.2242 86.8526 33.967C86.8526 32.6733 85.7824 31.6395 84.5251 31.6395C83.2315 31.6395 82.1976 32.7097 82.1976 33.967ZM78.431 42.534C78.431 43.3471 79.096 44.0121 79.8727 44.0121C80.6858 44.0121 81.3508 43.3471 81.3508 42.534C81.3508 41.721 80.6858 41.056 79.8727 41.056C79.0571 41.0949 78.431 41.7236 78.431 42.534ZM83.1951 39.6169C83.1951 40.4299 83.8601 41.0949 84.6732 41.0949C85.4863 41.0949 86.1513 40.4299 86.1513 39.6169C86.1513 38.8038 85.4863 38.1388 84.6732 38.1388C83.8601 38.1414 83.1951 38.8038 83.1951 39.6169ZM81.8651 44.7888C81.8651 46.1915 83.0107 47.3007 84.3771 47.3007C85.7798 47.3007 86.889 46.1552 86.889 44.7888C86.889 43.4224 85.7434 42.2769 84.3771 42.2769C82.9717 42.2405 81.8651 43.3835 81.8651 44.7888ZM87.1098 41.6482C87.1098 42.6094 87.8865 43.3835 88.8087 43.3835C89.7698 43.3835 90.5439 42.6068 90.5439 41.6482C90.5439 40.6871 89.7672 39.913 88.8087 39.913C87.8839 39.9494 87.1098 40.7261 87.1098 41.6482ZM86.9981 37.0322C86.9981 37.8816 87.6995 38.583 88.5125 38.583C89.362 38.583 90.0633 37.8816 90.0633 37.0322C90.0633 36.1828 89.362 35.4814 88.5125 35.4814C87.6995 35.5178 86.9981 36.2191 86.9981 37.0322Z" fill="#1766A6"/>
<path d="M90.7283 85.0447C89.7672 85.7824 87.5514 87.4085 83.8575 87.4085C81.8625 87.4085 81.0131 86.7799 80.717 86.7799C80.3481 86.7799 79.9403 87.1488 79.535 87.6293C78.6492 88.6632 77.54 90.5465 77.54 92.6532C77.54 94.1313 78.6856 95.5704 80.7897 95.5704C87.6215 95.5704 92.7571 91.2868 92.7571 87.8137C92.7597 85.8577 91.5778 85.0447 90.7283 85.0447ZM88.845 84.6394C89.1412 84.3796 89.2139 83.9744 89.2139 83.5692V82.7561C89.2139 81.6859 87.6267 81.0573 85.4109 81.0573C82.7509 81.0573 81.3118 82.2755 81.3118 82.7925V84.4914C81.3118 85.1927 82.938 85.8941 84.894 85.8941C86.4812 85.8577 87.8839 85.4525 88.845 84.6394ZM88.5489 88.2969C88.7333 88.2969 88.9541 88.4086 88.9541 89.0736C88.9541 89.8867 88.5853 90.9205 87.2916 91.77C86.3695 92.3986 85.1122 92.9155 83.3016 92.9519C83.5978 92.0661 83.8186 91.1413 83.8186 90.2919C83.8186 89.9958 83.7822 89.775 83.7458 89.4425H84.2264C87.0734 89.4035 88.3281 88.2969 88.5489 88.2969Z" fill="#1766A6"/>
<path d="M74.5528 43.5705C74.958 46.6721 79.1324 45.1213 79.1324 48.8879C79.1324 49.4412 78.9844 50.2542 78.9844 50.9556C78.9844 51.7687 79.0571 52.47 79.6857 52.47C80.3144 52.47 80.4624 52.0258 80.4624 51.4362C80.4624 50.8465 80.3144 50.1062 80.3144 49.7009C80.3144 48.4073 81.2365 48.1138 81.7924 48.1138C83.1952 48.1138 84.229 49.5555 86.3357 49.5555C85.8552 51.883 81.0183 51.2907 81.0183 53.839C81.0183 55.1326 82.312 55.4262 83.1614 55.4262C83.9381 55.4262 84.1953 55.3145 84.1953 54.6495C84.1953 54.2806 84.1225 53.8728 84.1225 53.6156C84.1225 53.4675 84.2342 53.3195 84.4187 53.3195C85.2317 53.3195 89.1828 56.312 89.1828 57.2341C89.1828 58.0836 85.0083 58.933 83.79 58.933C83.4212 58.933 83.3458 58.6732 83.3458 58.5278C83.3458 58.268 83.9745 57.4939 83.9745 57.0497C83.9745 56.7172 83.4212 56.4964 81.9431 56.4964C81.2417 56.4964 80.7248 56.5691 80.7248 57.125C80.7248 58.1225 82.3509 59.3045 82.3509 60.2266C82.3509 60.9644 81.9067 61.4086 80.7248 61.4086C79.7273 61.4086 78.2492 60.6319 78.2492 59.3772C78.2492 58.3433 79.3195 57.3458 79.3195 56.7172C79.3195 56.5328 79.1714 56.2366 78.7298 56.2366C77.3634 56.2366 76.9946 59.8188 72.2305 60.2266C73.0072 59.5253 73.6722 58.7486 73.6722 57.1978C73.6722 56.4211 73.4877 55.795 73.4877 54.982C73.4877 53.8728 74.0047 53.3195 74.7424 53.3195C76.1088 53.3195 76.7374 55.2028 77.6232 55.2028C78.1038 55.2028 78.6207 54.7586 78.6207 54.0936C78.6207 51.3245 73.2643 51.7297 73.2643 47.815C73.2228 46.7084 73.5916 45.3784 74.5528 43.5705ZM92.022 54.2806C92.022 55.2028 92.3181 56.2392 93.2403 56.2392C94.017 56.2392 94.682 55.0573 94.682 53.8026C94.682 52.3246 94.4222 51.218 94.4222 50.6257C94.4222 50.3659 94.5339 50.2568 94.682 50.2568C95.2353 50.2932 95.7523 51.8076 96.3445 51.8076C97.0095 51.8076 97.9706 50.5893 98.3759 50.5893C98.4876 50.5893 98.5239 50.7374 98.5239 50.7738C98.5239 51.3271 97.6745 52.5454 97.6745 52.9896C97.6745 53.3948 99.8176 53.4701 99.8176 53.839C99.8176 54.3923 97.6018 54.3923 96.5315 54.8729C95.4977 55.3171 94.869 55.8704 94.869 56.6081C94.869 57.3458 95.6068 57.4939 96.6406 57.4939C99.0772 57.4939 100.815 56.1639 101.368 56.1639C101.48 56.1639 101.553 56.2366 101.553 56.3483C101.553 56.7172 100.298 57.9355 100.298 58.4524C100.298 59.0811 102.55 59.8188 102.514 60.1877C102.478 60.2994 102.33 60.3357 102.07 60.3357C101.665 60.3357 101.036 60.224 100.555 60.224C100.259 60.224 100.002 60.2604 99.8903 60.4085C99.6306 60.7046 99.963 62.6243 99.4461 62.6243C98.9655 62.6243 97.7109 58.3018 94.9028 58.3018C94.4976 58.3018 94.2015 58.6343 94.2015 59.1876C94.2015 60.6656 95.6431 62.3281 96.9705 63.1386C97.5992 63.5438 98.5967 63.9517 98.5967 64.1725C98.5967 64.6167 96.2692 64.2088 96.2692 64.9492C96.2692 65.6142 96.5653 66.6117 96.5653 67.165C96.5653 67.3494 96.5289 67.5702 96.3055 67.5702C95.8613 67.5702 94.7911 65.5752 94.2742 65.5752C93.83 65.5752 92.8714 66.7935 92.4636 66.7935C92.3519 66.7935 92.2792 66.6818 92.2792 66.5727C92.2792 65.7233 93.6455 63.84 93.6455 61.9567C93.6455 61.0709 93.5339 59.1876 92.4636 59.1876C91.5778 59.1876 90.5803 60.5903 90.1725 61.9567C89.9127 62.7697 90.0997 65.8713 89.5075 65.8713C88.9542 65.8713 89.1022 63.8036 88.3619 63.8036C87.8086 63.8036 86.663 64.8011 86.2578 64.8011C86.1851 64.8011 86.1097 64.7647 86.1097 64.6894C86.1097 64.2452 87.18 62.8061 87.18 62.5463C87.18 61.993 84.7797 61.9177 84.7797 61.4761C84.7797 61.2163 85.7409 61.0319 86.6267 60.8864C88.4736 60.5539 91.2427 59.1876 91.2427 57.3043C91.2427 55.2002 89.175 54.2754 87.845 53.3896C87.1436 52.9454 86.3669 52.5765 86.3669 52.2804C86.3669 51.9843 87.2527 51.9843 87.6216 51.9843C88.1749 51.9843 88.7308 51.9479 88.7308 51.5037C88.7308 51.1712 88.658 50.5062 88.658 49.9893C88.658 49.6204 88.6944 49.3243 88.8425 49.3243C89.3958 49.3243 90.1725 51.1348 90.5413 51.1348C91.131 51.1348 91.9441 49.6568 92.5 49.6568C92.6844 49.6568 92.7597 49.7685 92.7597 50.101C92.7234 51.4362 92.022 52.9506 92.022 54.2806Z" fill="#1766A6"/>
<path d="M75.623 64.4374C77.3219 64.6583 77.7271 65.2505 77.7271 65.7311C77.7271 66.5441 76.9894 66.8013 76.2854 66.8013C75.7685 66.8013 75.1762 66.6896 74.5502 66.6896C73.7371 66.6896 72.924 66.8741 72.298 67.6507C72.7786 67.7235 73.4799 68.056 73.4799 68.7963C73.4799 70.9004 67.6066 69.1652 67.6066 74.6307C67.6066 77.5115 70.5991 80.652 75.1398 80.652C77.4673 80.652 78.9818 79.8753 78.9818 78.9895C78.9818 78.2882 77.7271 78.7687 77.7271 78.1765C77.7271 77.9167 78.1713 77.4387 78.1713 77.0309C78.1713 76.8465 78.0232 76.514 77.7271 76.514C77.0621 76.514 75.8074 77.5842 73.2955 77.5842C71.3005 77.5842 69.3808 76.4386 69.3808 74.9242C69.3808 74.5917 69.5289 74.4073 69.7497 74.4073C69.9705 74.4073 70.2666 74.5553 70.5264 74.5553C70.7472 74.5553 70.7862 74.4073 70.7862 74.002C70.7862 73.5968 70.7862 72.4512 71.4875 72.4512C72.1889 72.4512 73.5189 74.9995 78.5428 74.9995C80.2053 74.9995 83.4913 74.667 84.6732 73.5578C84.6369 77.5842 81.4963 82.9016 74.8853 82.9016C68.0534 82.9016 64.3959 77.3998 64.3959 72.3759C64.3959 66.7624 68.9756 61.7021 75.2178 61.7021C76.8439 61.7021 78.1713 62.2554 78.1713 62.9568C78.2077 63.8816 75.8074 63.2919 75.623 64.4374ZM86.8501 66.3571C87.1098 66.7624 87.2189 67.1702 87.2189 67.5391C87.2189 68.5729 86.5176 69.5341 86.5176 70.5679C86.5176 71.7862 87.4397 72.7473 88.8087 72.7473C90.3231 72.7473 91.3206 71.529 91.3206 70.1263C91.357 68.204 89.6218 66.5416 86.8501 66.3571ZM74.7372 68.6846C75.1061 69.0535 75.2178 69.4224 75.2178 69.7938C75.2178 70.3471 74.958 70.9394 74.958 71.5654C74.958 72.4512 75.623 73.2279 76.5841 73.2279C77.618 73.2279 78.3194 72.4149 78.3194 71.4927C78.3194 70.051 76.8777 68.6846 74.7372 68.6846ZM79.613 62.4788C83.4549 63.2166 85.559 66.0973 85.559 68.7937C85.559 70.677 84.3771 72.3759 82.3457 72.3759C80.4624 72.3759 79.1324 71.0823 79.1324 69.0509C79.1324 67.5001 80.3144 65.9103 80.3144 64.3232C80.3144 63.7361 80.1299 63.1075 79.613 62.4788ZM81.5327 67.3546C81.5327 67.8716 81.9015 68.2768 82.4185 68.2768C83.0081 68.2768 83.3796 67.7599 83.3796 67.1676C83.3796 66.3909 82.6782 65.3207 82.0132 65.3207C81.7171 65.3207 81.8288 65.7649 81.7535 66.2428C81.7171 66.6169 81.5327 67.0585 81.5327 67.3546Z" fill="#1766A6"/>
<path d="M41.1261 29.6834C42.3808 29.6834 43.7861 22.9607 43.7861 21.8177C43.7861 21.5216 43.6744 21.3008 43.4172 21.3008C42.2717 21.3008 40.7209 27.691 40.7209 29.1301C40.7209 29.4236 40.7936 29.6834 41.1261 29.6834ZM50.101 31.7148C51.0232 31.7148 52.0207 28.2053 52.0207 25.9895C52.0207 25.509 51.9479 24.992 51.7245 24.992C50.9478 24.992 49.6932 28.6106 49.6932 30.6056C49.6958 31.3823 49.8802 31.7148 50.101 31.7148ZM44.1186 28.4625C44.5238 28.4625 45.0408 28.0183 46.0019 26.9481C46.0746 26.4675 46.0746 26.0259 46.0746 25.47C46.0746 24.7323 45.7785 23.9192 45.3369 23.9192C44.2277 23.9192 43.6744 26.8364 43.6744 27.6131C43.6744 28.0936 43.8978 28.4625 44.1186 28.4625ZM49.1425 26.9481C49.1425 26.3194 48.9944 26.1714 48.8463 26.1714C48.4775 26.1714 48.0696 26.6156 47.48 27.6131C47.5527 28.9431 47.7761 29.5327 48.145 29.5327C48.5502 29.499 49.1425 28.2417 49.1425 26.9481ZM51.9479 22.6282C54.3482 22.6282 55.4574 24.6959 55.4574 27.0598C55.4574 28.0936 55.1612 29.5717 54.6807 29.5717C54.2001 29.5717 54.2754 28.7223 54.2001 27.9456C54.1274 26.9481 53.9403 26.7273 53.6104 26.7273C52.9818 26.7273 52.5766 28.2053 52.5766 29.5353C52.5766 30.3848 52.7246 31.3459 53.3896 31.3459C53.7585 31.3459 54.091 31.1615 54.3118 30.9407C54.1637 32.6395 52.9091 34.0812 51.1712 34.0812C47.9579 34.0812 46.7396 30.3146 46.3708 28.0988C44.4121 30.1302 42.6405 31.6446 39.4272 31.6446C36.4347 31.6446 35.0684 29.4652 35.0684 27.3611C35.0684 26.7325 35.2892 25.1453 36.0659 25.1453C36.988 25.1453 36.1776 28.1378 37.9492 28.1378C38.3934 28.1378 39.2038 27.7689 39.648 26.5506C39.9078 25.8129 40.0533 25.0362 40.0533 24.4076C40.0533 23.4101 39.8325 22.7814 39.0921 22.7814C38.4635 22.7814 37.6894 23.262 37.4296 23.5192C38.3154 20.8981 40.4221 19.5292 42.786 19.5292C45.6668 19.5292 47.2176 22.0775 47.2176 24.9583C47.2176 25.3635 47.1812 25.8077 47.1059 26.2129C48.3658 24.2153 50.101 22.6282 51.9479 22.6282Z" fill="#1766A6"/>
<path d="M45.1161 32.4889C43.5289 32.4889 43.4536 34.4086 43.4536 38.2505C42.2716 35.7386 40.352 33.0058 38.0608 33.0058C36.51 33.0058 35.9567 34.0397 35.9567 35.8139C35.9567 36.1828 35.9931 36.7361 36.0684 37.0686C36.2529 36.4399 36.8451 36.1828 37.5829 36.1828C39.17 36.1828 41.0533 37.4011 42.3106 39.0272C40.8689 38.7674 39.5025 38.5103 38.3206 38.5103C37.5829 38.5103 36.9179 38.583 36.362 38.8428C35.2917 39.3233 33.8864 40.8741 33.8864 43.2744C33.8864 43.6432 33.9228 44.0511 33.9981 44.4927C35.2917 41.6482 38.6895 40.3572 40.8689 40.3572C41.3131 40.3572 41.6456 40.3936 41.9028 40.4299C40.7572 41.4638 40.5 43.238 40.4247 44.4563C40.3883 45.046 40.1649 45.0849 39.7597 45.0849C39.7597 46.3032 40.7208 48.0774 40.7208 48.9996C40.7208 49.3321 40.5364 49.6282 40.352 49.701C40.352 51.3271 41.9781 52.4701 41.9781 53.5039C41.9781 53.7637 41.9054 53.9845 41.7937 54.0936C41.9054 54.7586 43.677 55.8652 43.8978 56.4211C44.1939 57.0861 44.4874 57.1978 44.6745 57.1978C45.3031 57.1978 46.3006 56.4601 46.3006 55.7951C46.3006 55.5743 46.1162 55.3145 45.9681 55.2054C45.2667 54.6885 44.8979 53.5793 44.6017 52.8779C44.342 52.8779 44.0121 52.7662 43.9004 52.3246C43.7159 51.5479 43.6796 50.1452 43.3834 49.2957C42.9029 49.184 42.6821 48.9996 42.6821 48.0021C42.6821 47.5215 42.9782 45.6746 42.9782 45.0096C42.7574 45.0096 42.4613 44.8615 42.4613 44.4199C42.4613 43.238 43.6432 42.3522 43.9757 40.8378C46.0434 42.3886 46.5604 43.9394 46.5604 45.3447C46.5604 46.0824 46.4487 46.7864 46.3006 47.4124C47.8514 46.6357 50.1425 45.4928 50.1425 43.2016C50.1425 41.8353 49.5139 40.3572 45.3784 39.7675C46.6721 39.287 48.2592 39.0298 49.6256 39.0298C51.9531 39.0298 53.3195 39.7675 53.6156 41.3937C54.0962 40.6559 54.465 39.8065 54.465 39.0662C54.465 37.2556 52.9506 36.1126 51.0673 36.1126C48.8515 36.1126 46.8565 37.2946 44.7524 38.6973C45.7135 36.7387 46.3785 35.5567 47.5215 35.5567C47.7059 35.5567 47.8904 35.5931 48.0748 35.6295C47.628 34.0397 46.0019 32.4889 45.1161 32.4889Z" fill="#1766A6"/>
<path d="M106.759 58.8603C108.605 58.8603 110.045 61.2242 110.045 64.0322C110.045 66.9858 108.642 70.1991 106.166 72.4149C106.13 67.4663 100.072 69.0535 100.072 65.4713C100.072 63.9205 101.181 62.923 102.472 62.923C103.654 62.923 104.576 63.2555 105.205 63.9205C104.54 63.2919 104.208 62.4061 104.208 61.593C104.283 60.1513 105.169 58.8603 106.759 58.8603Z" fill="#1766A6"/>
<path d="M74.1085 24.1062C75.0697 25.0284 75.9191 25.4362 76.9166 25.4362C77.3218 25.4362 77.8024 25.3245 78.0622 25.3245C78.3947 25.3245 78.6155 25.4726 78.6155 25.7298C78.6155 26.135 78.2466 26.8 77.8024 27.1715C78.2466 27.3559 78.7246 27.4312 79.2441 27.4312C81.3118 27.4312 83.7121 26.1012 83.7121 22.8152C84.1563 23.4049 84.4134 24.6258 84.4134 25.1427C84.4134 29.1327 81.4963 30.6835 78.7999 30.6835C77.0283 30.6835 76.1789 30.0938 75.9555 30.0938C75.2541 30.0938 75.2905 31.4966 74.8099 31.4602C73.9605 31.3121 73.1838 29.4652 73.1838 27.4702C73.1474 26.2467 73.4435 25.0284 74.1085 24.1062ZM79.613 21.4462C79.3168 20.9657 78.2102 20.7085 77.7297 20.7085C76.1035 20.7085 75.0333 21.8541 74.8125 22.8516C74.6644 22.4827 74.5527 22.0385 74.5527 21.5969C74.5527 19.9708 75.6619 18.0147 78.3193 18.0147C80.6468 18.0147 81.569 19.2694 81.9015 19.2694C82.2704 19.2694 82.6392 18.9005 82.9354 18.9005C83.3406 18.9005 83.3406 19.5292 83.3406 19.9708C83.3406 21.4488 82.6756 23.9608 81.0495 24.8829C80.7533 24.2543 80.1637 23.5529 79.2389 23.1113C78.9791 22.9996 78.87 22.7788 78.87 22.558C78.7999 22.1476 79.1688 21.6307 79.613 21.4462Z" fill="#1766A6"/>
<path d="M48.6619 13.4688C48.6619 14.7625 53.2416 21.002 54.1274 21.002C54.8651 21.002 55.421 19.7084 55.421 18.6382C55.421 18.342 55.3483 18.0485 55.2002 17.8251C54.5352 16.9029 49.8802 13.248 48.8827 13.248C48.7346 13.248 48.6619 13.3571 48.6619 13.4688ZM21.7736 9.66326C21.7736 10.401 19.0045 12.8402 18.007 12.8402C17.6381 12.8402 17.5264 12.396 17.5264 11.9908C17.5264 11.253 17.8589 10.2192 18.2641 9.88666C18.7447 9.44246 19.8513 9.22166 20.6644 9.22166C21.1839 9.29439 21.7736 9.40609 21.7736 9.66326ZM55.1612 11.8063C55.1612 9.62689 49.2152 5.63949 49.1399 3.90166C49.1399 3.75359 49.2126 3.56916 49.3607 3.45746C50.3945 2.38723 54.6053 1.61053 54.6053 0.688359C54.6053 0.207793 53.7195 0.207793 53.2753 0.207793C49.8776 0.207793 44.8927 1.46246 44.8927 2.64439C44.8927 3.89906 49.3607 6.92793 49.3607 8.44236C49.3607 8.8476 49.1009 8.99566 48.6957 8.99566C47.441 8.99566 44.7446 7.48123 43.451 7.48123C42.8613 7.48123 42.6379 7.88646 42.6379 8.47873C42.6379 10.2503 44.7057 13.5753 44.7057 14.5365C44.7057 14.6482 44.6693 14.7962 44.5212 14.7962C43.8562 14.7962 40.7546 11.1387 39.6454 11.1387C39.2402 11.1387 39.2012 11.692 39.2012 12.5051V13.7598C39.2012 14.6092 39.1649 15.1261 38.757 15.1261C37.7959 15.1261 37.3543 12.4661 36.4659 12.4661C35.5048 12.4661 35.3203 17.2302 34.4345 17.2302C33.3643 17.2302 34.2865 11.9856 33.2526 11.9856C32.107 11.9856 30.8524 15.456 30.0393 15.456C29.7432 15.456 29.6704 15.1599 29.6704 14.9027C29.6704 13.8325 30.2991 12.1336 30.2991 11.0998C30.2991 10.5828 30.151 10.2867 29.7094 10.2867C28.5638 10.2867 26.0909 12.1336 25.1297 12.1336C24.9817 12.1336 24.7972 12.0609 24.7972 11.9128C24.7972 11.027 28.7872 8.25533 28.7872 7.00066C28.7872 5.78236 23.2854 6.59543 23.2854 5.1901C23.2854 4.00816 27.2001 2.82623 27.2001 1.60793C27.2001 0.537695 22.5477 0.0571289 20.7735 0.0571289C18.6304 0.0571289 17.4485 0.316895 17.4485 0.94293C17.4485 1.90406 22.3606 2.1976 22.3606 3.01066C22.3606 3.82373 17.2692 5.97199 17.2692 7.22666C17.2692 8.33586 24.4336 7.29939 24.4336 8.44496C24.4336 9.69963 18.1914 15.056 18.1914 16.8666C18.1914 17.2718 18.4875 17.4562 18.8928 17.4562C20.8124 17.4562 25.7246 13.8377 27.091 13.8377C27.5715 13.8377 27.6079 14.4274 27.6079 14.9469C27.6079 15.908 27.2754 17.3471 27.2754 18.4174C27.2754 19.2668 27.4962 19.8591 28.2365 19.8591C29.6029 19.8591 30.8212 17.5679 31.746 17.5679C32.9279 17.5679 32.2265 24.327 33.9618 24.327C35.4762 24.327 36.0659 17.0146 37.027 17.0146C37.9881 17.0146 38.7622 19.1187 39.6117 19.1187C40.7209 19.1187 40.2013 15.4249 41.3833 15.4249C42.6769 15.4249 46.3318 19.8201 47.9579 19.8201C48.4749 19.8201 48.6593 19.4149 48.6593 18.8979C48.6593 16.9393 45.9629 12.583 45.9629 11.1777C45.9629 10.8088 46.0746 10.6971 46.4799 10.6971C47.9216 10.6971 52.0934 12.6558 54.052 12.6558C54.7924 12.6558 55.1612 12.2869 55.1612 11.8063ZM51.3583 4.56666C51.3583 5.23166 53.6494 6.6344 54.7196 6.6344C55.3483 6.6344 55.5327 5.78496 55.5327 4.89916C55.5327 3.78996 55.0521 3.75359 54.091 3.75359C52.9091 3.79256 51.3583 4.12506 51.3583 4.56666ZM42.7886 0.836426C42.7886 0.615625 41.6794 0.392227 40.2039 0.392227C37.8401 0.392227 38.1726 2.38723 36.3256 2.38723C34.406 2.38723 34.8839 0.319492 32.4837 0.319492C31.0056 0.319492 29.6756 0.579258 29.6756 0.90916C29.6756 1.35336 31.4109 1.16893 31.4109 2.38723C31.4109 3.68086 27.717 4.04973 27.717 4.78746C27.717 5.04723 28.0131 5.15633 28.382 5.15633C29.1951 5.15633 30.4497 4.78746 31.3745 4.78746C31.8914 4.78746 32.372 4.89916 32.372 5.37713C32.372 6.2993 30.377 7.92543 30.377 8.66316C30.377 8.88396 30.5614 8.9593 30.7459 8.9593C31.4836 8.9593 32.7409 7.076 33.8864 7.076C35.8451 7.076 34.5514 11.2115 35.6217 11.2115C36.7309 11.2115 36.2503 7.14873 37.8011 7.14873C39.0947 7.14873 40.0169 9.9568 40.9027 9.9568C41.1235 9.9568 41.3079 9.77236 41.3079 9.5126C41.3079 8.7359 40.1987 7.1851 40.1987 6.15123C40.1987 5.5226 40.6429 5.22906 41.2326 5.22906C42.082 5.22906 43.1912 5.746 43.8173 5.746C44.0381 5.746 44.2615 5.67326 44.2615 5.4135C44.2615 4.5277 41.0118 3.56656 41.0118 2.45996C40.9806 1.35336 42.7886 1.35336 42.7886 0.836426Z" fill="#1766A6"/>
<path d="M107.644 6.74611C107.644 9.99578 105.28 12.4713 100.997 13.1727C101.477 13.2091 101.919 13.2091 102.363 13.2091C107.387 13.2091 109.195 10.9569 109.195 9.03465C109.195 8.00338 108.605 7.04224 107.644 6.74611ZM101.477 10.44C101.477 7.85531 95.2716 7.19031 95.2716 6.59804C95.2716 6.11748 98.7421 5.30441 100.553 5.26804C97.8199 1.76121 93.9053 2.13007 93.9053 1.50144C93.9053 1.13257 96.8224 0.392242 99.5188 0.392242C101.771 0.392242 103.914 0.909176 103.914 2.60804C103.914 3.56918 103.137 4.56668 103.137 6.00578C103.137 6.81884 103.543 7.52021 104.615 7.52021C105.761 7.52021 106.018 6.30191 106.018 5.04465C106.018 3.97441 105.834 3.19771 105.834 2.68078C105.834 1.12998 106.904 0.132477 108.382 0.132477C109.637 0.132477 109.933 0.685778 111.743 0.685778C110.746 1.27545 110.377 2.34828 110.377 2.82884C110.377 4.37965 111.375 5.41351 111.375 8.59045C111.375 14.352 105.945 16.4198 99.3344 16.4198C97.5238 16.4198 95.5678 16.2717 93.6845 15.9756C93.3883 15.9392 93.3156 15.8639 93.3156 15.6795C93.3156 15.1989 95.9003 14.9417 95.9003 12.6142C95.9003 11.692 95.6041 10.8036 95.6041 10.5101C95.6041 10.3257 95.7522 10.214 95.9003 10.214C96.4536 10.214 97.5628 12.3181 99.5941 12.3181C100.111 12.3233 101.477 12.1388 101.477 10.44ZM107.423 2.35088C107.423 2.86781 107.829 3.27304 108.346 3.27304C108.863 3.27304 109.268 2.86781 109.268 2.35088C109.268 1.83394 108.863 1.42871 108.346 1.42871C107.829 1.46507 107.423 1.87031 107.423 2.35088Z" fill="#1766A6"/>
<path d="M104.174 36.1827C104.174 35.406 102.215 35.3333 102.031 33.1902C101.994 32.8577 101.883 32.2681 101.477 32.2681C100.812 32.2681 101.329 34.2631 100.592 34.2631C98.8928 34.2631 98.3759 30.977 97.7472 30.977C97.5992 30.977 97.4147 31.0887 97.4147 31.5303C97.4147 31.9356 97.4875 32.1953 97.4875 32.6759C97.4875 33.1565 97.3758 33.489 96.9342 33.489C95.9367 33.489 95.0509 31.1978 94.2378 31.1978C94.0534 31.1978 93.8689 31.3095 93.8689 31.494C93.8689 31.9382 94.6067 32.7486 94.6067 33.1565C94.6067 34.0423 92.2428 33.5617 92.2428 34.302C92.2428 34.6345 92.5753 34.7462 93.0195 34.7462C93.7962 34.7462 95.0145 34.4137 95.6042 34.4137C95.973 34.4137 96.5263 34.4865 96.5263 34.967C96.5263 35.484 95.1963 36.149 95.1963 36.6295C95.1963 36.8503 95.4171 36.962 95.6016 36.962C96.5991 36.962 98.3343 35.2268 99.5916 35.2268C99.8124 35.2268 100.368 35.3385 100.368 35.671C100.368 36.1516 99.1136 37.001 99.1136 37.666C99.1136 37.8504 99.2253 38.0712 99.4461 38.0712C100.111 38.0712 100.997 36.336 102.215 36.336C102.696 36.336 103.397 36.5204 103.766 36.5204C104.062 36.4789 104.174 36.2944 104.174 36.1827ZM105.132 53.9117C105.722 52.1012 106.462 50.8101 107.644 48.8151C106.462 48.1865 103.249 46.8565 103.249 44.716C103.249 42.2041 106.39 40.2091 107.052 40.2091C107.348 40.2091 107.421 40.4689 107.421 40.9468C107.421 42.2768 106.792 44.3809 106.792 45.5265C106.792 46.5604 107.457 47.5579 108.047 47.5579C108.676 47.5579 110.374 45.3784 110.374 43.199C110.374 39.3207 106.977 38.1388 105.906 38.1388C104.909 38.1388 103.137 39.7649 98.9266 39.7649C91.0609 39.7649 89.2503 31.9719 89.2503 28.5742C89.2503 28.4261 89.2867 28.3898 89.323 28.3898C89.5075 28.3898 90.2842 29.3509 92.7571 29.3509C94.0508 29.3509 95.1937 29.0184 97.0796 29.0184C101.475 29.0184 103.395 32.0473 106.127 35.9256C107.753 36.9594 111.704 38.5856 111.704 43.238C111.704 47.3371 107.346 49.5892 106.275 53.9845C107.938 53.8 108.935 50.8075 110.671 50.8075C111.556 50.8075 111.964 51.5089 111.964 52.6181C111.964 54.2442 111.042 56.6445 109.304 58.1589C109.341 58.0108 109.341 57.8264 109.341 57.6056C109.341 56.5717 108.935 55.13 107.753 55.13C105.943 55.13 105.353 57.0887 104.319 58.7486C103.249 55.0183 101.844 51.657 99.2591 49.5892C96.6744 47.5215 92.2038 48.6281 92.2038 44.8251C92.2038 43.7913 92.8688 42.3496 92.8688 41.1676C92.8688 40.7624 92.7961 40.3909 92.5727 40.0974C96.0821 41.4274 94.8249 43.7549 97.0043 46.1551C98.3343 47.7059 102.101 49.1476 104.244 55.4989C104.28 55.3145 104.317 54.8339 104.317 54.5014C104.317 49.0723 97.1524 43.7913 96.5237 41.5755C100.698 42.056 101.436 43.0899 103.395 48.5554C103.802 49.7009 105.132 52.5454 105.132 53.9117Z" fill="#1766A6"/>
<path d="M85.1148 15.2041C82.5665 15.2041 80.8677 13.9104 80.8677 13.2454C80.8677 12.9129 81.0885 12.6921 81.3846 12.6921C82.1977 12.6921 83.9329 13.9468 84.5252 13.9468C84.6732 13.9468 84.7849 13.8741 84.7849 13.6507C84.7849 12.9857 84.1563 11.8791 84.1563 11.3595C84.1563 11.2115 84.268 11.0998 84.4888 11.0998C85.4863 11.0998 86.9254 11.505 87.7021 11.505C87.9619 11.505 88.0346 11.3569 88.0346 11.2089C88.0346 10.3958 85.6707 8.84501 85.6707 8.36444C85.6707 7.92025 88.6243 7.25525 88.6243 6.55388C88.6243 5.81614 84.5979 6.33308 84.5979 5.63171C84.5979 5.11478 85.3746 4.22898 85.3746 3.82114C85.3746 3.63671 85.2265 3.56138 84.9694 3.56138C84.6369 3.56138 82.8653 4.26275 82.1613 4.26275C81.7924 4.26275 81.3482 4.19001 81.3482 3.67308C81.3482 2.82364 82.7899 1.90148 85.0057 1.90148C88.6243 1.90148 90.7673 4.37704 90.7673 8.54888C90.7647 13.8741 87.0735 15.2041 85.1148 15.2041ZM77.9869 8.26054C77.9869 7.8553 76.5452 7.0786 76.5452 6.63441C76.5452 6.56167 76.6179 6.52271 76.7296 6.52271C77.1348 6.52271 77.8388 6.67077 78.3921 6.67077C78.8727 6.67077 78.9454 4.63941 79.3143 4.63941C79.574 4.63941 80.0156 6.59804 80.4235 6.59804C80.904 6.59804 81.7898 6.04474 82.1587 6.04474C82.2314 6.04474 82.3068 6.0811 82.3068 6.15644C82.3068 6.4162 81.3846 7.4111 81.3846 7.70724C81.3846 8.03974 83.4523 8.44497 83.4523 8.74111C83.4523 9.10997 81.3482 9.0736 81.3482 9.40611C81.3482 9.66587 82.1249 10.6997 82.1249 11.0322C82.1249 11.105 82.0886 11.1439 82.0132 11.1439C81.7171 11.1439 80.5715 10.627 80.2416 10.627C79.8364 10.627 79.1714 12.1414 78.8753 12.1414C78.7636 12.1414 78.6908 11.9934 78.6908 11.8089L78.6181 10.3309C78.6181 10.1828 78.5454 10.0347 78.3583 10.0347C77.9141 10.0347 77.0647 9.99837 76.8075 9.99837C76.6231 9.99837 76.5478 9.962 76.5478 9.88667C76.5088 9.55417 77.9869 8.5203 77.9869 8.26054ZM76.9166 14.2429C77.5063 14.2429 77.618 15.6846 77.7297 16.4951C77.8024 16.9393 77.8778 16.9757 78.0622 16.9757C78.5064 16.9757 79.2078 15.2768 79.6494 15.2768C80.3507 15.2768 82.1977 17.2354 85.3382 17.2354C89.7698 17.2354 93.9443 14.1338 93.9443 8.62941C93.9443 3.312 90.214 0.207804 85.0421 0.207804C82.6055 0.207804 80.7949 1.4261 79.8338 1.4261C79.2441 1.46247 78.3921 -0.0155945 77.9505 -0.0155945C77.7661 -0.0155945 77.5816 0.353273 77.5816 0.981906C77.5816 1.38714 77.5816 2.68077 77.1374 2.68077C76.2516 2.68077 72.8539 0.168839 72.8539 1.05464C72.8539 1.90407 75.1061 4.45237 75.1061 5.11737C75.1061 5.78237 72.8903 6.41101 72.8903 6.85261C72.8903 7.66567 75.2541 7.81374 75.2541 8.84761C75.2541 9.88148 72.7786 10.6945 72.7786 11.4323C72.7786 12.0609 75.2541 11.6167 75.2541 12.3934C75.2541 13.1701 73.4072 15.7184 73.4072 16.4561C73.4072 16.6406 73.4436 16.6406 73.5916 16.6406C74.3294 16.6458 76.3997 14.2429 76.9166 14.2429Z" fill="#1766A6"/>
<path d="M60.3332 78.509C60.3332 78.8415 60.2215 79.2103 59.928 79.5792C59.5227 78.8415 58.3772 78.47 57.8966 78.47C54.13 78.47 55.5691 83.9355 51.5453 83.9355C49.8465 83.9355 49.6984 83.7147 49.1087 83.7147C48.849 83.7147 48.7035 83.8263 48.7035 84.0471C48.7035 85.0083 50.0699 87.3332 53.8365 87.3332C57.6031 87.3332 61.2242 85.0421 61.2242 82.1613C61.2242 81.6807 61.1125 81.1638 60.8917 80.6468C61.0398 80.426 61.4086 80.278 61.7411 80.278C62.3308 80.278 62.6633 80.943 63.2192 80.943C63.8089 80.943 64.2531 80.4988 64.2531 79.9091C64.2531 79.4285 63.9933 79.096 63.5517 78.8752C63.8478 78.6544 64.0686 78.2855 64.0686 77.8777C64.0686 77.2491 63.6244 76.6594 62.8867 76.6594C62.5542 76.6594 62.3334 76.7711 62.0736 77.0283C62.0009 76.3633 61.6294 75.7346 60.9281 75.7346C60.3748 75.7346 59.9669 76.1399 59.9669 76.7685C59.9254 77.3998 60.3332 77.8803 60.3332 78.509Z" fill="#1766A6"/>
<path d="M40.2767 71.7135C43.1938 72.4512 44.6719 74.0046 44.968 75.8879C45.2642 77.6985 45.633 79.1376 46.3344 79.8779C47.2566 80.9118 49.0308 81.7976 50.6179 81.7976C51.9479 81.7976 52.9818 81.3534 52.9818 80.1714C52.9818 78.8414 51.1712 75.8879 48.5502 75.8879C48.2904 75.8879 47.9605 75.9243 47.5891 75.9243C47.2566 75.9243 46.776 75.8515 46.4799 75.5918C45.8902 75.0748 45.7032 72.3421 44.5966 70.6796C43.3783 68.8327 42.0846 68.3521 40.2741 68.3521C38.9804 68.3521 37.5777 69.0535 37.5777 70.0873C37.6193 70.6796 37.9518 71.1212 40.2767 71.7135ZM50.5088 79.9117C49.3996 79.9117 47.7761 78.7297 47.7761 78.0647C47.7761 77.5114 48.293 77.2153 48.6983 77.2153C49.6204 77.2153 51.2466 78.3609 51.2466 79.3194C51.2102 79.5792 51.0258 79.9117 50.5088 79.9117Z" fill="#1766A6"/>
<path d="M47.1111 51.3998C47.1111 49.0723 52.6883 47.8176 52.6883 44.9368C52.6883 44.4563 52.5039 43.6068 52.1714 43.0172C54.091 44.0874 55.5327 45.8616 55.5327 47.3397C55.5327 49.8516 52.9117 51.0335 52.9117 52.6207C52.9117 54.4677 55.7198 54.7248 55.7198 57.016C55.7198 58.8629 53.0598 61.0423 53.0598 63.4426C53.0598 65.3259 54.3898 66.8403 56.3848 67.1C55.7198 67.2481 55.1301 67.3598 54.5378 67.3598C50.844 67.3598 47.041 64.3309 47.041 60.7124C47.041 58.9018 47.8177 57.351 48.9607 56.2055C49.9945 57.0913 51.0284 57.6835 51.657 57.6835C52.2467 57.6835 52.5065 57.3874 52.5065 56.9458C52.5039 55.5353 47.1111 54.2806 47.1111 51.3998ZM58.7824 69.8666C57.5277 70.4562 57.0108 70.3471 57.0108 71.6382C57.0108 72.1187 56.8991 72.7474 56.8991 73.0799C56.8991 73.5241 56.9718 73.7812 57.4888 73.7812C58.8188 73.7812 60.8865 71.5654 60.8865 69.6458C60.8865 69.1288 60.5904 68.908 60.2579 68.908C60.0007 68.8691 59.6682 69.4587 58.7824 69.8666ZM58.6707 67.2429C58.6707 65.5804 55.273 65.5441 55.273 63.0685C55.273 62.4399 55.6782 61.3696 56.4913 60.2604C56.8238 62.1801 57.6005 63.1412 59.224 63.7699C62.4737 64.9882 62.9179 66.7987 62.9179 68.7548C62.9179 72.0408 60.6267 76.1425 54.6807 76.1425C49.9166 76.1425 46.5189 71.8953 46.5189 68.3132C46.5189 67.3157 46.7786 66.2454 47.4047 66.2454C47.958 66.2454 48.1424 66.6896 48.5866 67.1312C50.2491 68.7937 52.0207 69.199 54.608 69.199C56.9355 69.1652 58.6707 68.2404 58.6707 67.2429Z" fill="#1766A6"/>
<path d="M32.7434 68.0196C32.8162 68.7963 32.2992 69.4613 31.5251 69.5704C30.7484 69.6431 30.0834 69.1262 29.9743 68.3521C29.9016 67.5754 30.4185 66.9104 31.1926 66.8013C31.9667 66.726 32.6681 67.2819 32.7434 68.0196ZM25.9116 69.4587C26.0597 70.7134 27.2416 71.6381 28.5326 71.5264C29.0132 71.4901 29.4548 71.342 29.7509 71.1576C30.0471 72.3395 31.0446 73.0772 32.3356 72.8928C33.6656 72.7084 34.5878 71.6745 34.4397 70.3081C34.4033 69.9393 34.328 69.7185 34.2189 69.4587C34.2189 69.4587 34.4033 69.4223 34.515 69.4223C35.845 69.1626 36.7308 68.1287 36.6191 66.8377C36.4711 65.5077 35.2891 64.5465 34.0708 64.6946C33.5903 64.7673 33.1487 64.9544 32.8525 65.1752C32.52 64.066 31.4862 63.1438 30.0834 63.3646C28.8288 63.5854 27.9793 64.6582 28.0884 66.0246C28.1248 66.2454 28.1612 66.5052 28.2729 66.7623C28.2729 66.7623 28.0521 66.7987 27.904 66.7987C26.9065 66.9857 25.7272 68.056 25.9116 69.4587Z" fill="#1766A6"/>
</g>
<defs>
<clipPath id="clip0_13_304">
<rect width="133" height="133" fill="white"/>
</clipPath>
</defs>
</svg>
