<svg width="292" height="77" viewBox="0 0 292 77" fill="none" xmlns="http://www.w3.org/2000/svg">
<path d="M43.576 47.4302C40.5182 47.7822 39.1556 47.399 38.5624 46.3577C37.9325 45.2522 38.4228 43.7543 39.8461 41.5928C41.9984 38.324 45.7357 34.6995 50.1891 32.3767C54.7711 29.9878 58.5928 31.1465 59.9904 34.001C61.2392 36.5493 61.0096 40.3553 55.3717 43.5068C51.4361 45.705 46.8467 47.0543 43.576 47.4302ZM9.81415 45.0083C17.9406 50.4717 26.5977 52.8733 34.9555 53.0878C47.7631 53.4105 57.5038 48.477 63.1895 43.131C58.7287 55.968 45.8899 68.123 28.1404 67.5987C16.2675 67.2467 6.65357 61.0042 3.04305 51.4653C0.655631 45.1513 2.9145 40.3682 9.81415 45.0083ZM14.3539 25.102C13.8067 24.3503 13.4412 24.3338 13.7332 25.2927C15.4099 30.8 21.8376 41.3912 27.6776 46.1927C22.0837 44.8562 14.9196 41.0153 8.73613 34.3127C0.696034 25.6043 -2.92917 12.6463 3.15324 7.8155C8.79674 3.33116 19.4336 7.7825 26.5977 20.8505C30.1733 27.3717 32.1898 37.8895 32.1163 44.7278C26.9907 40.7202 20.6475 33.7645 14.3539 25.102ZM261.171 49.17C266.148 49.17 269.902 45.1055 269.902 39.7137C269.902 34.287 266.148 30.1932 261.171 30.1932C256.231 30.1932 252.507 34.287 252.507 39.7137C252.507 45.1037 256.231 49.17 261.171 49.17ZM269.452 9.88167H276.276V54.7543H270.363L269.804 51.4433C267.443 54.0522 264.054 55.4052 260.269 55.4052C251.952 55.4052 245.68 48.6603 245.68 39.7137C245.68 30.7322 251.952 23.9598 260.269 23.9598C263.874 23.9598 267.13 25.1918 269.452 27.5532V9.88167ZM134.682 39.644C134.682 45.0707 138.436 49.1645 143.412 49.1645C148.353 49.1645 152.077 45.0707 152.077 39.644C152.077 34.254 148.353 30.1877 143.412 30.1877C138.436 30.1877 134.682 34.2522 134.682 39.644ZM135.132 51.7807V67.7453H128.307V24.5978H134.221L134.781 27.9437C137.165 25.2267 140.621 23.9525 144.312 23.9525C152.632 23.9525 158.903 30.6992 158.903 39.644C158.903 48.6273 152.632 55.3997 144.314 55.3997C140.762 55.3997 137.477 54.219 135.132 51.7807ZM121.373 9.87983V36.982C121.373 48.1727 113.421 55.4033 103.03 55.4033C92.4814 55.4033 84.7608 48.345 84.7608 36.982V9.88167H91.8459V36.8555C91.8459 44.4418 96.663 48.7905 103.03 48.7905C109.397 48.7905 114.288 44.4418 114.288 36.8555V9.87983H121.373ZM232.77 54.7562V9.88167H239.596V54.758L232.77 54.7562ZM212.945 38.0545C217.481 38.0178 219.777 36.7052 219.777 34.1495C219.777 31.702 217.355 30.0557 213.748 30.0538H213.727C209.66 30.0538 206.371 32.9982 205.691 37.0333C207.564 37.6933 210.238 38.0563 212.71 38.0563L212.945 38.0545ZM223.198 26.9353C225.402 28.7998 226.614 31.4362 226.614 34.3585C226.614 40.2105 221.709 43.703 213.489 43.703C210.875 43.703 208.106 43.3363 205.586 42.383C206.211 46.497 209.649 49.3277 214.343 49.3277C217.478 49.3277 220.166 48.1782 222.557 45.815L226.68 50.3892C223.163 53.845 219.353 55.3868 214.341 55.3868C204.892 55.3868 198.786 49.2818 198.786 39.831C198.786 29.5185 206.576 23.9543 213.906 23.9543C217.68 23.9543 220.893 24.9847 223.198 26.9353ZM185.874 54.7562V24.5978H192.7V54.7562H185.874ZM189.025 11.1265C191.137 13.3668 192.149 16.0453 192.481 19.1143H185.708C185.525 17.4313 184.985 16.2177 183.887 15.147C182.889 14.1753 181.422 13.6125 179.828 13.6125C178.052 13.6125 176.585 14.2982 175.624 15.2882C174.168 16.7878 173.83 18.5808 173.83 21.4078V24.5978H180.243V30.6717H173.83V54.7562H167.004V30.6717H161.011V24.5978H167.004V22.4767C167.004 17.0958 168.063 13.8563 170.708 11.0458C172.877 8.7395 176.015 7.39383 179.692 7.39383C183.725 7.39383 186.762 8.72483 189.025 11.1265ZM286.424 9.89817L287.688 13.4732L288.962 9.89817H290.369V14.8922H289.46V10.8625L288.09 14.8922H287.299L285.916 10.8625V14.8922H285.009V9.89817H286.423H286.424ZM279.949 10.7323V9.89817H284.169V10.7323H282.551V14.8922H281.567V10.7305L279.949 10.7323ZM60.2659 3.3055C66.5301 6.99967 66.8974 15.3248 61.3182 19.9687C55.2302 25.0323 41.5154 27.0875 36.4798 40.1628C34.0318 29.7843 33.6737 17.6073 38.5918 10.1053C44.362 1.298 54.0659 -0.348335 60.2659 3.3055ZM197.445 76.8625C195.636 76.8625 193.791 76.1292 192.979 74.9247L194.11 73.8137C194.845 74.943 196.259 75.4325 197.577 75.4325C199.311 75.4325 200.196 74.5672 200.196 73.3627C200.196 72.3855 199.612 71.6522 198.198 71.3313L196.654 70.9738C194.619 70.5045 193.638 69.3568 193.638 67.7948C193.638 65.7067 195.429 64.0713 197.936 64.0713C199.519 64.0713 201.232 64.7497 201.93 65.802L200.799 66.9112C200.178 65.9138 198.971 65.4995 197.86 65.4995C196.202 65.4995 195.354 66.4033 195.354 67.5895C195.354 68.6987 196.088 69.3183 197.295 69.6007L198.858 69.9398C200.762 70.3725 201.912 71.5018 201.912 73.1555C201.912 75.207 200.139 76.8625 197.445 76.8625ZM204.323 76.6737V68.585H204.832C205.416 68.585 205.641 68.5667 205.867 68.4732V76.6737H204.323ZM205.094 66.8745C204.956 66.8782 204.819 66.8541 204.69 66.8035C204.562 66.753 204.445 66.6771 204.346 66.5804C204.248 66.4837 204.17 66.3682 204.118 66.2407C204.065 66.1133 204.039 65.9765 204.04 65.8387C204.04 65.2557 204.492 64.8047 205.094 64.8047C205.698 64.8047 206.15 65.2557 206.15 65.8387C206.152 65.9767 206.125 66.1136 206.073 66.2411C206.02 66.3687 205.942 66.4844 205.843 66.5811C205.745 66.6778 205.627 66.7537 205.499 66.8041C205.37 66.8545 205.232 66.8785 205.094 66.8745ZM208.808 76.6737V68.585H209.316C209.9 68.585 210.124 68.5667 210.352 68.4732V70.2588C210.861 69.036 211.992 68.398 213.347 68.398C215.101 68.398 216.137 69.4503 216.137 71.3497V76.6737H214.591V71.577C214.591 70.2405 214.045 69.751 212.914 69.751C211.39 69.751 210.352 70.6915 210.352 72.3653V76.6737H208.808ZM222.75 76.8625C220.357 76.8625 218.434 74.9998 218.434 72.6862C218.434 70.4477 220.3 68.3962 222.768 68.3962C224.276 68.3962 225.52 69.1112 226.142 70.5412L224.974 71.2195C224.465 70.2222 223.692 69.7143 222.693 69.7143C221.13 69.7143 220.017 70.9738 220.017 72.6843C220.017 74.3417 221.073 75.5443 222.732 75.5443C223.861 75.5443 224.691 75.0365 225.049 74.0777L226.199 74.7743C225.652 75.977 224.408 76.8625 222.75 76.8625ZM231.852 76.8625C229.308 76.8625 227.499 74.9247 227.499 72.6678C227.499 70.3725 229.345 68.3962 231.53 68.3962C233.679 68.3962 235.394 70.2588 235.394 72.9117H229.044C229.099 74.415 230.118 75.6012 231.852 75.6012C233.038 75.6012 233.754 75.0567 234.149 74.1528L235.299 74.7743C234.696 76.0522 233.51 76.8625 231.852 76.8625ZM231.473 69.564C230.136 69.564 229.214 70.6365 229.062 71.8777H233.887C233.736 70.6365 232.812 69.564 231.473 69.564ZM244.984 76.6737V66.6087C244.231 67.5693 243.137 68.3778 241.631 69.1882L241.159 67.9452C242.831 67.0578 244.276 65.7966 245.379 64.2602H246.604V76.6737H244.984ZM253.84 76.8625C251.278 76.8625 249.355 75.4692 249.355 73.5515C249.355 72.1765 250.297 71.049 252.088 70.466C250.468 69.7693 249.656 68.7738 249.656 67.4373C249.656 65.5013 251.465 64.0713 253.821 64.0713C256.176 64.0713 258.005 65.5013 258.005 67.3823C258.005 68.7353 257.081 69.7712 255.498 70.3157L255.687 70.3908C257.439 71.0875 258.306 72.1032 258.306 73.4378C258.306 75.4508 256.402 76.8625 253.84 76.8625ZM254.519 71.4248L253.237 70.917C251.805 71.5018 251.015 72.3287 251.015 73.4378C251.015 74.7358 252.145 75.5645 253.878 75.5645C255.592 75.5645 256.666 74.7927 256.666 73.5332C256.666 72.611 256.082 72.0463 254.517 71.4248H254.519ZM251.315 67.3823C251.315 68.266 251.844 68.8857 253.427 69.5072L254.367 69.883C255.649 69.3568 256.365 68.5098 256.365 67.4575C256.365 66.1778 255.348 65.3675 253.84 65.3675C252.334 65.3675 251.315 66.1778 251.315 67.3823ZM261.245 76.6737L266.012 65.5197H259.492V64.2583H267.595V65.4262L262.96 76.6737H261.245ZM272.721 76.6737V66.6087C271.968 67.5693 270.873 68.3778 269.365 69.1882L268.895 67.9452C270.568 67.0578 272.012 65.7966 273.115 64.2602H274.34V76.6737H272.721Z" fill="#009639"/>
</svg>
